<svg xmlns="http://www.w3.org/2000/svg" version="1.1" xmlns:xlink="http://www.w3.org/1999/xlink" width="262" height="265"><svg width="262" height="265" viewBox="0 0 262 265" fill="none" xmlns="http://www.w3.org/2000/svg">
<path d="M253.452 202.582V251.081H224.353C190.031 251.081 169.139 239.889 156.082 221.982C151.232 215.64 139.667 198.479 126.983 179.452C93.0338 236.158 63.9347 252.573 8.34802 251.081V202.582C47.8929 202.209 73.2614 181.691 99.3759 137.669L81.4688 110.808C53.4889 69.025 21.7784 73.5018 8.34802 73.1287V24.6303H28.8666C54.235 24.6303 87.0648 26.8687 110.941 62.3098C112.433 64.9213 119.521 74.9941 128.475 88.4244L129.967 86.186C154.963 50.3718 166.528 24.6303 209.057 24.6303H243.006V73.1287H216.891C195.254 73.1287 172.497 102.228 156.082 129.089C169.512 148.861 181.823 166.768 186.3 173.11C211.669 206.313 221.741 202.582 253.452 202.582Z" fill="#EE6D17"></path>
</svg><style>@media (prefers-color-scheme: light) { :root { filter: none; } }
@media (prefers-color-scheme: dark) { :root { filter: none; } }
</style></svg>