<svg width="186" height="45" viewBox="0 0 186 45" fill="none" xmlns="http://www.w3.org/2000/svg">
<g clip-path="url('#clip0_14002_8627')">
<mask id="mask0_14002_8627" style="mask-type: luminance" maskUnits="userSpaceOnUse" x="0" y="0" width="186" height="45">
<path d="M185.588 0.221191H0.972168V44.2055H185.588V0.221191Z" fill="white"></path>
</mask>
<g mask="url('#mask0_14002_8627')">
<path d="M69.5472 0.757324V4.91885H58.6705V10.1208H68.097V13.967H58.6705V23.2674H53.7208V0.757324H69.5472Z" fill="#192322"></path>
<path d="M76.8298 17.7185C77.1045 18.2455 77.4648 18.6688 77.9197 18.9931C78.3701 19.3174 78.9015 19.5606 79.514 19.7182C80.1221 19.8758 80.7526 19.9524 81.4056 19.9524C81.847 19.9524 82.3199 19.9164 82.8244 19.8398C83.3288 19.7678 83.8017 19.6236 84.2431 19.4165C84.6844 19.2048 85.0537 18.9165 85.3465 18.5517C85.6392 18.1824 85.7879 17.714 85.7879 17.1465C85.7879 16.5385 85.5942 16.0431 85.2069 15.6648C84.8195 15.2865 84.3061 14.9712 83.6756 14.719C83.045 14.4668 82.3289 14.2461 81.5318 14.0569C80.7346 13.8678 79.9239 13.6561 79.1042 13.4264C78.262 13.2147 77.4423 12.958 76.6451 12.6517C75.8479 12.3455 75.1318 11.9536 74.5013 11.4717C73.8708 10.9898 73.3618 10.3818 72.97 9.66119C72.5827 8.93608 72.389 8.05783 72.389 7.03096C72.389 5.87348 72.6367 4.86913 73.1321 4.01791C73.6276 3.16669 74.2716 2.45959 75.0733 1.89211C75.8705 1.32463 76.7757 0.905772 77.7846 0.631039C78.7934 0.356306 79.8023 0.221191 80.8111 0.221191C81.9866 0.221191 83.1171 0.351802 84.2025 0.617527C85.2834 0.878749 86.2473 1.30661 87.085 1.89211C87.9272 2.48211 88.5937 3.22974 89.0847 4.14402C89.5801 5.05829 89.8278 6.16623 89.8278 7.46783H85.0357C84.9952 6.79676 84.8511 6.23829 84.6079 5.79692C84.3647 5.35554 84.0449 5.00875 83.6486 4.75654C83.2477 4.50432 82.7928 4.32417 82.2794 4.22058C81.766 4.11699 81.203 4.06295 80.5905 4.06295C80.1896 4.06295 79.7933 4.10348 79.3924 4.18905C78.9916 4.27463 78.6313 4.41875 78.3025 4.63043C77.9782 4.84211 77.708 5.10333 77.5008 5.4186C77.2892 5.73386 77.1856 6.1347 77.1856 6.61661C77.1856 7.05799 77.2711 7.41379 77.4378 7.68852C77.6044 7.96325 77.9377 8.21547 78.4331 8.44516C78.9286 8.67486 79.6086 8.90905 80.4824 9.13875C81.3561 9.36844 82.4956 9.6657 83.9053 10.0215C84.3241 10.1071 84.9096 10.2602 85.6528 10.4809C86.4004 10.7016 87.139 11.0529 87.8776 11.5348C88.6118 12.0167 89.2468 12.6652 89.7827 13.4714C90.3187 14.2821 90.5889 15.3135 90.5889 16.5791C90.5889 17.6104 90.3908 18.5652 89.9899 19.448C89.5891 20.3307 88.9946 21.0919 88.2064 21.7359C87.4182 22.3755 86.4409 22.8754 85.2744 23.2357C84.1079 23.596 82.7568 23.7717 81.221 23.7717C79.9824 23.7717 78.7799 23.6185 77.6089 23.3123C76.4424 23.006 75.4111 22.5286 74.5193 21.88C73.6276 21.227 72.916 20.3983 72.389 19.3894C71.8621 18.3806 71.6098 17.1826 71.6324 15.7954H76.4244C76.4244 16.552 76.5595 17.1916 76.8343 17.7185H76.8298Z" fill="#192322"></path>
<path d="M99.7181 0.757324V19.1059H110.689V23.2674H94.7684V0.757324H99.7181Z" fill="#192322"></path>
<path d="M129.795 17.7185C130.07 18.2455 130.43 18.6688 130.885 18.9931C131.335 19.3174 131.867 19.5606 132.479 19.7182C133.087 19.8758 133.718 19.9524 134.371 19.9524C134.812 19.9524 135.285 19.9164 135.789 19.8398C136.294 19.7678 136.767 19.6236 137.208 19.4165C137.65 19.2048 138.019 18.9165 138.312 18.5517C138.604 18.1824 138.753 17.714 138.753 17.1465C138.753 16.5385 138.559 16.0431 138.172 15.6648C137.785 15.2865 137.271 14.9712 136.641 14.719C136.01 14.4668 135.294 14.2461 134.497 14.0569C133.7 13.8678 132.889 13.6561 132.069 13.4264C131.227 13.2147 130.407 12.958 129.61 12.6517C128.813 12.3455 128.097 11.9536 127.466 11.4717C126.836 10.9898 126.327 10.3818 125.935 9.66119C125.548 8.93608 125.354 8.05783 125.354 7.03096C125.354 5.87348 125.602 4.86913 126.097 4.01791C126.593 3.16669 127.237 2.45959 128.038 1.89211C128.836 1.32463 129.741 0.905772 130.75 0.631039C131.759 0.356306 132.767 0.221191 133.776 0.221191C134.952 0.221191 136.082 0.351802 137.168 0.617527C138.249 0.878749 139.212 1.30661 140.055 1.89211C140.897 2.48211 141.563 3.22974 142.054 4.14402C142.55 5.05829 142.797 6.16623 142.797 7.46783H138.005C137.965 6.79676 137.821 6.23829 137.577 5.79692C137.334 5.35554 137.014 5.00875 136.618 4.75654C136.217 4.50432 135.762 4.32417 135.249 4.22058C134.736 4.11699 134.173 4.06295 133.56 4.06295C133.159 4.06295 132.763 4.10348 132.362 4.18905C131.961 4.27463 131.601 4.41875 131.272 4.63043C130.948 4.84211 130.678 5.10333 130.47 5.4186C130.259 5.73386 130.155 6.1347 130.155 6.61661C130.155 7.05799 130.241 7.41379 130.407 7.68852C130.574 7.96325 130.907 8.21547 131.403 8.44516C131.898 8.67486 132.578 8.90905 133.452 9.13875C134.326 9.36844 135.465 9.6657 136.875 10.0215C137.294 10.1071 137.879 10.2602 138.622 10.4809C139.37 10.7016 140.109 11.0529 140.847 11.5348C141.581 12.0167 142.216 12.6652 142.752 13.4714C143.288 14.2821 143.559 15.3135 143.559 16.5791C143.559 17.6104 143.36 18.5652 142.96 19.448C142.559 20.3307 141.964 21.0919 141.176 21.7359C140.388 22.3755 139.411 22.8754 138.244 23.2357C137.078 23.596 135.726 23.7717 134.191 23.7717C132.952 23.7717 131.75 23.6185 130.579 23.3123C129.412 23.006 128.381 22.5286 127.489 21.88C126.597 21.227 125.886 20.3983 125.359 19.3894C124.832 18.3806 124.579 17.1826 124.602 15.7954H129.394C129.394 16.552 129.529 17.1916 129.804 17.7185H129.795Z" fill="#192322"></path>
<path d="M153.251 23.2674L145.968 0.757324H151.044L156.056 16.5837H156.12L161.195 0.757324H166.303L158.831 23.2674H153.251Z" fill="#192322"></path>
<path d="M185.313 0.757324V4.91885H174.437V10.1208H183.863V13.967H174.437V23.2674H169.487V0.757324H185.313Z" fill="#192322"></path>
<path d="M54.2523 32.7479C54.2523 32.9551 54.2883 33.1353 54.3604 33.2839C54.4324 33.4325 54.5315 33.5541 54.6576 33.6487C54.7837 33.7433 54.9324 33.8108 55.099 33.8559C55.2657 33.9009 55.4458 33.9189 55.6395 33.9189C55.8466 33.9189 56.0268 33.8964 56.1754 33.8469C56.3241 33.7973 56.4412 33.7343 56.5357 33.6577C56.6303 33.5811 56.6934 33.4911 56.7339 33.392C56.7744 33.2929 56.7969 33.1893 56.7969 33.0902C56.7969 32.8831 56.7519 32.7254 56.6573 32.6263C56.5628 32.5273 56.4592 32.4552 56.3466 32.4147C56.1529 32.3426 55.9277 32.275 55.671 32.212C55.4143 32.1489 55.0945 32.0634 54.7162 31.9643C54.482 31.9012 54.2838 31.8247 54.1307 31.7211C53.9731 31.622 53.8515 31.5094 53.7614 31.3878C53.6713 31.2662 53.6037 31.1356 53.5677 30.996C53.5317 30.8563 53.5092 30.7167 53.5092 30.5726C53.5092 30.2979 53.5677 30.0592 53.6803 29.8565C53.7974 29.6538 53.946 29.4872 54.1352 29.3566C54.3244 29.226 54.5405 29.1269 54.7792 29.0638C55.0179 29.0008 55.2611 28.9692 55.5089 28.9692C55.7926 28.9692 56.0628 29.0053 56.315 29.0818C56.5673 29.1584 56.7879 29.2665 56.9816 29.4151C57.1708 29.5637 57.3239 29.7439 57.4365 29.9646C57.5491 30.1808 57.6031 30.433 57.6031 30.7167H56.6483C56.6213 30.3654 56.5042 30.1177 56.288 29.9691C56.0718 29.8205 55.8016 29.7529 55.4683 29.7529C55.3557 29.7529 55.2431 29.7664 55.1215 29.7889C55.0044 29.8115 54.8963 29.852 54.8018 29.906C54.7027 29.9601 54.6261 30.0321 54.5586 30.1222C54.491 30.2123 54.464 30.3294 54.464 30.4645C54.464 30.6582 54.5225 30.8113 54.6441 30.9194C54.7657 31.0275 54.9189 31.1131 55.117 31.1671C55.1395 31.1716 55.2161 31.1941 55.3602 31.2302C55.4999 31.2662 55.6575 31.3112 55.8331 31.3563C56.0088 31.4013 56.1754 31.4463 56.3421 31.4914C56.5087 31.5364 56.6258 31.5679 56.6979 31.586C56.878 31.64 57.0311 31.7166 57.1663 31.8157C57.2969 31.9147 57.4095 32.0228 57.4995 32.1489C57.5896 32.275 57.6572 32.4102 57.6977 32.5498C57.7428 32.6939 57.7608 32.838 57.7608 32.9776C57.7608 33.2839 57.6977 33.5451 57.5716 33.7613C57.4455 33.9775 57.2834 34.1576 57.0762 34.2927C56.8735 34.4324 56.6393 34.5315 56.3781 34.5945C56.1169 34.6576 55.8511 34.6891 55.5809 34.6891C55.2702 34.6891 54.9774 34.6531 54.6982 34.5765C54.4234 34.4999 54.1847 34.3828 53.9776 34.2252C53.7749 34.0676 53.6082 33.8649 53.4866 33.6172C53.365 33.3695 53.302 33.0767 53.2975 32.7389H54.2523V32.7479Z" fill="#192322"></path>
<path d="M61.0665 31.937C61.0305 31.6938 60.9314 31.5091 60.7738 31.383C60.6116 31.2569 60.409 31.1939 60.1658 31.1939C60.0532 31.1939 59.9316 31.2119 59.8055 31.2524C59.6794 31.2929 59.5623 31.3605 59.4542 31.4686C59.3461 31.5722 59.256 31.7208 59.1839 31.9055C59.1119 32.0901 59.0758 32.3378 59.0758 32.6351C59.0758 32.7972 59.0939 32.9594 59.1344 33.126C59.1704 33.2881 59.2335 33.4368 59.319 33.5629C59.4046 33.689 59.5127 33.7926 59.6433 33.8736C59.7739 33.9547 59.9361 33.9907 60.1252 33.9907C60.3819 33.9907 60.5891 33.9097 60.7558 33.752C60.9224 33.5944 61.026 33.3737 61.0665 33.0855H61.9403C61.8592 33.5989 61.661 33.9952 61.3548 34.27C61.0485 34.5447 60.6342 34.6798 60.1252 34.6798C59.8145 34.6798 59.5397 34.6258 59.301 34.5222C59.0623 34.4186 58.8642 34.2745 58.702 34.0943C58.5399 33.9142 58.4138 33.698 58.3327 33.4458C58.2516 33.1936 58.2066 32.9233 58.2066 32.6351C58.2066 32.3468 58.2471 32.0586 58.3282 31.8019C58.4093 31.5407 58.5309 31.3155 58.6975 31.1263C58.8597 30.9371 59.0623 30.784 59.3055 30.6759C59.5487 30.5678 59.8325 30.5093 60.1613 30.5093C60.391 30.5093 60.6071 30.5408 60.8143 30.5994C61.0215 30.6579 61.2061 30.748 61.3638 30.8651C61.5214 30.9822 61.6565 31.1308 61.7601 31.311C61.8637 31.4911 61.9223 31.7028 61.9448 31.946H61.071L61.0665 31.937Z" fill="#192322"></path>
<path d="M62.5798 29.1045H63.4536V31.1357H63.4671C63.5752 30.9556 63.7328 30.8069 63.9445 30.6853C64.1562 30.5637 64.3904 30.5052 64.6516 30.5052C65.084 30.5052 65.4262 30.6178 65.6785 30.843C65.9307 31.0682 66.0523 31.4059 66.0523 31.8518V34.5721H65.1785V32.0815C65.1695 31.7708 65.102 31.5456 64.9804 31.4059C64.8588 31.2663 64.6651 31.1943 64.4084 31.1943C64.2598 31.1943 64.1292 31.2213 64.0121 31.2753C63.895 31.3294 63.7959 31.4014 63.7148 31.496C63.6337 31.5906 63.5707 31.7032 63.5211 31.8293C63.4716 31.9554 63.4536 32.0905 63.4536 32.2346V34.5721H62.5798V29.1045Z" fill="#192322"></path>
<path d="M66.5477 30.6133H67.4755L68.2502 33.5678H68.2637L69.0068 30.6133H69.8851L70.5967 33.5678H70.6102L71.4164 30.6133H72.3036L71.0651 34.5721H70.1688L69.4347 31.6311H69.4212L68.6915 34.5721H67.7728L66.5477 30.6133Z" fill="#192322"></path>
<path d="M73.4744 32.8198C73.4744 32.973 73.497 33.1216 73.5375 33.2657C73.5825 33.4098 73.6456 33.5314 73.7312 33.6395C73.8167 33.7476 73.9293 33.8332 74.0599 33.8963C74.1905 33.9593 74.3527 33.9908 74.5328 33.9908C74.7896 33.9908 74.9922 33.9368 75.1499 33.8242C75.3075 33.7161 75.4201 33.5495 75.4967 33.3288H76.3254C76.2803 33.545 76.1992 33.7341 76.0866 33.9008C75.9741 34.0674 75.8389 34.2115 75.6813 34.3241C75.5237 34.4412 75.3435 34.5268 75.1499 34.5853C74.9517 34.6439 74.749 34.6754 74.5328 34.6754C74.2221 34.6754 73.9473 34.6259 73.7041 34.5223C73.4609 34.4187 73.2628 34.2791 73.0961 34.0944C72.9295 33.9098 72.8034 33.6936 72.7223 33.4369C72.6367 33.1802 72.5962 32.9009 72.5962 32.5947C72.5962 32.3154 72.6412 32.0497 72.7313 31.793C72.8214 31.5408 72.9475 31.3201 73.1141 31.1264C73.2808 30.9373 73.4789 30.7841 73.7131 30.6715C73.9473 30.5589 74.2131 30.5049 74.5103 30.5049C74.8211 30.5049 75.1003 30.5679 75.348 30.6985C75.5957 30.8292 75.8029 31.0003 75.965 31.2165C76.1272 31.4327 76.2488 31.6759 76.3208 31.9551C76.3929 32.2343 76.4154 32.5181 76.3794 32.8153H73.4699L73.4744 32.8198ZM75.5147 32.2434C75.5057 32.1037 75.4741 31.9731 75.4246 31.847C75.375 31.7209 75.312 31.6083 75.2264 31.5137C75.1408 31.4192 75.0418 31.3426 74.9202 31.284C74.7986 31.2255 74.6679 31.194 74.5193 31.194C74.3707 31.194 74.2266 31.221 74.1005 31.275C73.9744 31.3291 73.8663 31.4011 73.7807 31.4957C73.6906 31.5903 73.6186 31.7029 73.5645 31.829C73.5105 31.9551 73.4834 32.0947 73.4744 32.2434H75.5102H75.5147Z" fill="#192322"></path>
<path d="M77.0055 29.1045H77.8792V29.9332H77.0055V29.1045ZM77.0055 30.6133H77.8792V34.5721H77.0055V30.6133Z" fill="#192322"></path>
<path d="M78.6224 30.6133H81.8381V31.2258L79.5727 33.883H81.9552V34.5721H78.4738V33.9596L80.6626 31.3024H78.6269V30.6133H78.6224Z" fill="#192322"></path>
<path d="M83.1983 32.8198C83.1983 32.973 83.2208 33.1216 83.2614 33.2657C83.3064 33.4098 83.3695 33.5314 83.455 33.6395C83.5406 33.7476 83.6532 33.8332 83.7838 33.8963C83.9144 33.9593 84.0766 33.9908 84.2567 33.9908C84.5134 33.9908 84.7161 33.9368 84.8737 33.8242C85.0314 33.7161 85.144 33.5495 85.2205 33.3288H86.0492C86.0042 33.545 85.9231 33.7341 85.8105 33.9008C85.6979 34.0674 85.5628 34.2115 85.4052 34.3241C85.2476 34.4412 85.0674 34.5268 84.8737 34.5853C84.6756 34.6439 84.4729 34.6754 84.2567 34.6754C83.9459 34.6754 83.6712 34.6259 83.428 34.5223C83.1848 34.4187 82.9866 34.2791 82.82 34.0944C82.6534 33.9098 82.5272 33.6936 82.4462 33.4369C82.3606 33.1802 82.3201 32.9009 82.3201 32.5947C82.3201 32.3154 82.3651 32.0497 82.4552 31.793C82.5453 31.5408 82.6714 31.3201 82.838 31.1264C83.0047 30.9373 83.2028 30.7841 83.437 30.6715C83.6712 30.5589 83.9369 30.5049 84.2342 30.5049C84.545 30.5049 84.8242 30.5679 85.0719 30.6985C85.3196 30.8292 85.5268 31.0003 85.6889 31.2165C85.8511 31.4327 85.9727 31.6759 86.0447 31.9551C86.1168 32.2343 86.1393 32.5181 86.1033 32.8153H83.1938L83.1983 32.8198ZM85.2385 32.2434C85.2295 32.1037 85.198 31.9731 85.1485 31.847C85.0989 31.7209 85.0359 31.6083 84.9503 31.5137C84.8647 31.4192 84.7656 31.3426 84.644 31.284C84.5224 31.2255 84.3918 31.194 84.2432 31.194C84.0946 31.194 83.9505 31.221 83.8243 31.275C83.6982 31.3291 83.5901 31.4011 83.5046 31.4957C83.4145 31.5903 83.3424 31.7029 83.2884 31.829C83.2343 31.9551 83.2073 32.0947 83.1983 32.2434H85.234H85.2385Z" fill="#192322"></path>
<path d="M86.7067 30.613H87.5264V31.3786H87.54C87.567 31.2705 87.6165 31.1669 87.6886 31.0634C87.7606 30.9598 87.8507 30.8697 87.9543 30.7841C88.0579 30.6985 88.175 30.631 88.3011 30.5815C88.4272 30.5319 88.5578 30.5049 88.6929 30.5049C88.7965 30.5049 88.8641 30.5049 88.9046 30.5139C88.9406 30.5184 88.9812 30.5229 89.0217 30.5274V31.3696C88.9587 31.3606 88.9001 31.3516 88.8326 31.3426C88.7695 31.3336 88.7064 31.3291 88.6434 31.3291C88.4948 31.3291 88.3551 31.3606 88.2245 31.4192C88.0939 31.4777 87.9813 31.5633 87.8822 31.6804C87.7832 31.7975 87.7066 31.9371 87.6526 32.1037C87.5985 32.2704 87.567 32.4685 87.567 32.6847V34.5673H86.6932V30.6085L86.7067 30.613Z" fill="#192322"></path>
<path d="M90.9313 29.1045H91.9266L93.2958 33.4327H93.3093L94.71 29.1045H95.6828L93.8137 34.5721H92.7508L90.9268 29.1045H90.9313Z" fill="#192322"></path>
<path d="M96.3403 32.8198C96.3403 32.973 96.3628 33.1216 96.4033 33.2657C96.4484 33.4098 96.5114 33.5314 96.597 33.6395C96.6826 33.7476 96.7952 33.8332 96.9258 33.8963C97.0564 33.9593 97.2185 33.9908 97.3987 33.9908C97.6554 33.9908 97.8581 33.9368 98.0157 33.8242C98.1733 33.7161 98.2859 33.5495 98.3625 33.3288H99.1912C99.1462 33.545 99.0651 33.7341 98.9525 33.9008C98.8399 34.0674 98.7048 34.2115 98.5471 34.3241C98.3895 34.4412 98.2094 34.5268 98.0157 34.5853C97.8175 34.6439 97.6149 34.6754 97.3987 34.6754C97.0879 34.6754 96.8132 34.6259 96.57 34.5223C96.3268 34.4187 96.1286 34.2791 95.962 34.0944C95.7953 33.9098 95.6692 33.6936 95.5881 33.4369C95.5026 33.1802 95.462 32.9009 95.462 32.5947C95.462 32.3154 95.5071 32.0497 95.5972 31.793C95.6872 31.5408 95.8133 31.3201 95.98 31.1264C96.1466 30.9373 96.3448 30.7841 96.579 30.6715C96.8132 30.5589 97.0789 30.5049 97.3762 30.5049C97.6869 30.5049 97.9662 30.5679 98.2139 30.6985C98.4616 30.8292 98.6688 31.0003 98.8309 31.2165C98.993 31.4327 99.1146 31.6759 99.1867 31.9551C99.2588 32.2343 99.2813 32.5181 99.2452 32.8153H96.3358L96.3403 32.8198ZM98.376 32.2434C98.367 32.1037 98.3355 31.9731 98.2859 31.847C98.2364 31.7209 98.1733 31.6083 98.0878 31.5137C98.0022 31.4192 97.9031 31.3426 97.7815 31.284C97.6599 31.2255 97.5293 31.194 97.3807 31.194C97.232 31.194 97.0879 31.221 96.9618 31.275C96.8357 31.3291 96.7276 31.4011 96.642 31.4957C96.552 31.5903 96.4799 31.7029 96.4259 31.829C96.3718 31.9551 96.3448 32.0947 96.3358 32.2434H98.3715H98.376Z" fill="#192322"></path>
<path d="M99.8848 30.613H100.705V31.3786H100.718C100.745 31.2705 100.795 31.1669 100.867 31.0634C100.939 30.9598 101.029 30.8697 101.132 30.7841C101.236 30.6985 101.353 30.631 101.479 30.5815C101.605 30.5319 101.736 30.5049 101.871 30.5049C101.975 30.5049 102.042 30.5049 102.083 30.5139C102.119 30.5184 102.159 30.5229 102.2 30.5274V31.3696C102.137 31.3606 102.078 31.3516 102.011 31.3426C101.948 31.3336 101.885 31.3291 101.821 31.3291C101.673 31.3291 101.533 31.3606 101.403 31.4192C101.272 31.4777 101.159 31.5633 101.06 31.6804C100.961 31.7975 100.885 31.9371 100.831 32.1037C100.777 32.2704 100.745 32.4685 100.745 32.6847V34.5673H99.8713V30.6085L99.8848 30.613Z" fill="#192322"></path>
<path d="M102.569 29.1045H103.443V31.1267H103.456C103.52 31.0321 103.592 30.9421 103.677 30.8655C103.763 30.7889 103.857 30.7259 103.965 30.6718C104.069 30.6178 104.182 30.5772 104.294 30.5502C104.411 30.5232 104.524 30.5097 104.636 30.5097C104.947 30.5097 105.217 30.5637 105.452 30.6763C105.686 30.7844 105.875 30.9375 106.028 31.1267C106.181 31.3204 106.298 31.5411 106.375 31.7978C106.452 32.0545 106.488 32.3247 106.488 32.6175C106.488 32.8832 106.452 33.1399 106.384 33.3921C106.316 33.6398 106.208 33.8605 106.069 34.0542C105.929 34.2479 105.749 34.401 105.537 34.5136C105.326 34.6262 105.069 34.6847 104.781 34.6847C104.65 34.6847 104.515 34.6757 104.38 34.6577C104.245 34.6397 104.114 34.6037 103.992 34.5541C103.871 34.5046 103.758 34.437 103.659 34.3559C103.56 34.2749 103.474 34.1668 103.411 34.0362H103.398V34.5811H102.569V29.1135V29.1045ZM105.618 32.595C105.618 32.4148 105.596 32.2437 105.551 32.0725C105.506 31.9014 105.438 31.7527 105.344 31.6221C105.249 31.4915 105.136 31.3879 104.997 31.3069C104.857 31.2258 104.7 31.1898 104.524 31.1898C104.155 31.1898 103.88 31.3159 103.695 31.5726C103.511 31.8293 103.416 32.1671 103.416 32.5904C103.416 32.7886 103.438 32.9733 103.488 33.1444C103.538 33.3156 103.61 33.4642 103.704 33.5858C103.803 33.7074 103.916 33.8065 104.051 33.8785C104.186 33.9506 104.344 33.9866 104.524 33.9866C104.722 33.9866 104.893 33.9461 105.028 33.865C105.168 33.784 105.281 33.6759 105.371 33.5453C105.461 33.4146 105.524 33.266 105.56 33.0994C105.596 32.9327 105.618 32.7616 105.618 32.5904V32.595Z" fill="#192322"></path>
<path d="M110.51 33.6936C110.51 33.8017 110.523 33.8782 110.55 33.9233C110.577 33.9683 110.631 33.9908 110.717 33.9908H110.807C110.843 33.9908 110.883 33.9863 110.928 33.9773V34.5808C110.897 34.5898 110.856 34.6034 110.811 34.6169C110.762 34.6304 110.712 34.6394 110.663 34.6529C110.613 34.6619 110.559 34.6709 110.51 34.6754C110.46 34.6799 110.415 34.6844 110.379 34.6844C110.199 34.6844 110.05 34.6484 109.933 34.5763C109.816 34.5043 109.739 34.3782 109.703 34.2025C109.528 34.3692 109.316 34.4953 109.064 34.5718C108.812 34.6484 108.568 34.6844 108.334 34.6844C108.154 34.6844 107.983 34.6619 107.821 34.6124C107.659 34.5628 107.514 34.4908 107.388 34.3962C107.262 34.3016 107.163 34.18 107.091 34.0359C107.019 33.8918 106.979 33.7206 106.979 33.5269C106.979 33.2837 107.024 33.0811 107.114 32.9279C107.204 32.7748 107.321 32.6532 107.465 32.5676C107.609 32.4821 107.776 32.419 107.956 32.3785C108.136 32.3379 108.321 32.3109 108.505 32.2884C108.663 32.2569 108.816 32.2343 108.956 32.2253C109.1 32.2118 109.226 32.1893 109.334 32.1623C109.442 32.1308 109.532 32.0857 109.595 32.0227C109.658 31.9596 109.69 31.865 109.69 31.7344C109.69 31.6218 109.663 31.5318 109.609 31.4597C109.555 31.3876 109.487 31.3336 109.411 31.2931C109.334 31.2525 109.244 31.23 109.145 31.2165C109.046 31.203 108.956 31.1985 108.87 31.1985C108.627 31.1985 108.424 31.248 108.267 31.3516C108.109 31.4552 108.019 31.6128 108.001 31.8245H107.127C107.141 31.5678 107.204 31.3561 107.312 31.1895C107.42 31.0228 107.555 30.8877 107.722 30.7841C107.888 30.6805 108.073 30.6085 108.285 30.5679C108.492 30.5274 108.708 30.5049 108.929 30.5049C109.122 30.5049 109.316 30.5274 109.505 30.5679C109.694 30.6085 109.865 30.676 110.014 30.7661C110.163 30.8562 110.284 30.9778 110.379 31.1219C110.469 31.266 110.519 31.4462 110.519 31.6534V33.6891L110.51 33.6936ZM109.64 32.5902C109.51 32.6757 109.343 32.7298 109.149 32.7478C108.956 32.7658 108.762 32.7928 108.568 32.8289C108.478 32.8424 108.388 32.8649 108.298 32.8919C108.213 32.9189 108.136 32.9595 108.068 33.0045C108.001 33.054 107.951 33.1171 107.911 33.1937C107.87 33.2702 107.852 33.3693 107.852 33.4819C107.852 33.5765 107.879 33.6621 107.938 33.7251C107.992 33.7927 108.059 33.8422 108.141 33.8827C108.222 33.9188 108.307 33.9458 108.402 33.9638C108.496 33.9773 108.582 33.9863 108.658 33.9863C108.753 33.9863 108.861 33.9728 108.974 33.9503C109.086 33.9278 109.19 33.8827 109.293 33.8197C109.393 33.7566 109.478 33.6801 109.541 33.5855C109.609 33.4909 109.64 33.3738 109.64 33.2387V32.5856V32.5902Z" fill="#192322"></path>
<path d="M111.424 30.6131H112.253V31.1941L112.266 31.2076C112.397 30.9869 112.572 30.8158 112.788 30.6896C113.005 30.5635 113.239 30.5005 113.5 30.5005C113.932 30.5005 114.275 30.6131 114.527 30.8383C114.779 31.0635 114.901 31.4013 114.901 31.8471V34.5674H114.027V32.0768C114.018 31.7661 113.95 31.5409 113.829 31.4013C113.707 31.2616 113.514 31.1896 113.257 31.1896C113.108 31.1896 112.978 31.2166 112.861 31.2706C112.743 31.3247 112.644 31.3967 112.563 31.4913C112.482 31.5859 112.419 31.6985 112.37 31.8246C112.32 31.9507 112.302 32.0858 112.302 32.23V34.5674H111.428V30.6086L111.424 30.6131Z" fill="#192322"></path>
<path d="M119.513 34.572H118.684V34.0361H118.67C118.553 34.2658 118.382 34.4324 118.157 34.5315C117.932 34.6306 117.693 34.6801 117.445 34.6801C117.135 34.6801 116.864 34.6261 116.63 34.5135C116.396 34.4054 116.207 34.2522 116.054 34.0676C115.9 33.8784 115.783 33.6532 115.707 33.3965C115.63 33.1398 115.594 32.8606 115.594 32.5678C115.594 32.212 115.644 31.9013 115.738 31.64C115.837 31.3788 115.964 31.1671 116.126 30.996C116.288 30.8248 116.472 30.7032 116.675 30.6267C116.878 30.5501 117.094 30.5096 117.306 30.5096C117.427 30.5096 117.553 30.5231 117.68 30.5456C117.806 30.5681 117.932 30.6042 118.049 30.6582C118.166 30.7122 118.274 30.7753 118.373 30.8519C118.472 30.9329 118.558 31.023 118.621 31.1311H118.634V29.1089H119.508V34.5765L119.513 34.572ZM116.468 32.6354C116.468 32.802 116.49 32.9687 116.531 33.1308C116.576 33.2929 116.639 33.4416 116.729 33.5677C116.819 33.6938 116.932 33.7974 117.071 33.8739C117.211 33.9505 117.373 33.9865 117.562 33.9865C117.752 33.9865 117.923 33.946 118.062 33.8649C118.202 33.7838 118.319 33.6758 118.405 33.5451C118.49 33.4145 118.562 33.2614 118.603 33.0993C118.648 32.9326 118.666 32.7615 118.666 32.5903C118.666 32.1535 118.567 31.8112 118.373 31.5635C118.175 31.3203 117.909 31.1942 117.571 31.1942C117.369 31.1942 117.193 31.2347 117.053 31.3203C116.914 31.4058 116.797 31.5139 116.707 31.649C116.617 31.7842 116.554 31.9373 116.518 32.1084C116.481 32.2796 116.459 32.4552 116.459 32.6354H116.468Z" fill="#192322"></path>
<path d="M126.259 34.572H125.431V34.0361H125.417C125.3 34.2658 125.129 34.4324 124.904 34.5315C124.678 34.6306 124.44 34.6801 124.192 34.6801C123.881 34.6801 123.611 34.6261 123.377 34.5135C123.143 34.4054 122.953 34.2522 122.8 34.0676C122.647 33.8784 122.53 33.6532 122.454 33.3965C122.377 33.1398 122.341 32.8606 122.341 32.5678C122.341 32.212 122.39 31.9013 122.485 31.64C122.584 31.3788 122.71 31.1671 122.872 30.996C123.035 30.8248 123.219 30.7032 123.422 30.6267C123.625 30.5501 123.841 30.5096 124.052 30.5096C124.174 30.5096 124.3 30.5231 124.426 30.5456C124.552 30.5681 124.678 30.6042 124.796 30.6582C124.913 30.7122 125.021 30.7753 125.12 30.8519C125.219 30.9329 125.304 31.023 125.368 31.1311H125.381V29.1089H126.255V34.5765L126.259 34.572ZM123.215 32.6354C123.215 32.802 123.237 32.9687 123.278 33.1308C123.323 33.2929 123.386 33.4416 123.476 33.5677C123.566 33.6938 123.679 33.7974 123.818 33.8739C123.958 33.9505 124.12 33.9865 124.309 33.9865C124.498 33.9865 124.669 33.946 124.809 33.8649C124.949 33.7838 125.066 33.6758 125.151 33.5451C125.237 33.4145 125.309 33.2614 125.349 33.0993C125.395 32.9326 125.413 32.7615 125.413 32.5903C125.413 32.1535 125.313 31.8112 125.12 31.5635C124.922 31.3203 124.656 31.1942 124.318 31.1942C124.115 31.1942 123.94 31.2347 123.8 31.3203C123.661 31.4058 123.543 31.5139 123.453 31.649C123.363 31.7842 123.3 31.9373 123.264 32.1084C123.228 32.2796 123.206 32.4552 123.206 32.6354H123.215Z" fill="#192322"></path>
<path d="M127.858 32.8198C127.858 32.973 127.88 33.1216 127.921 33.2657C127.966 33.4098 128.029 33.5314 128.115 33.6395C128.2 33.7476 128.313 33.8332 128.443 33.8963C128.574 33.9593 128.736 33.9908 128.916 33.9908C129.173 33.9908 129.376 33.9368 129.533 33.8242C129.691 33.7161 129.804 33.5495 129.88 33.3288H130.709C130.664 33.545 130.583 33.7341 130.47 33.9008C130.358 34.0674 130.222 34.2115 130.065 34.3241C129.907 34.4412 129.727 34.5268 129.533 34.5853C129.335 34.6439 129.133 34.6754 128.916 34.6754C128.606 34.6754 128.331 34.6259 128.088 34.5223C127.844 34.4187 127.646 34.2791 127.48 34.0944C127.313 33.9098 127.187 33.6936 127.106 33.4369C127.02 33.1802 126.98 32.9009 126.98 32.5947C126.98 32.3154 127.025 32.0497 127.115 31.793C127.205 31.5408 127.331 31.3201 127.498 31.1264C127.664 30.9373 127.862 30.7841 128.097 30.6715C128.331 30.5589 128.597 30.5049 128.894 30.5049C129.205 30.5049 129.484 30.5679 129.732 30.6985C129.979 30.8292 130.186 31.0003 130.349 31.2165C130.511 31.4327 130.632 31.6759 130.704 31.9551C130.776 32.2343 130.799 32.5181 130.763 32.8153H127.853L127.858 32.8198ZM129.898 32.2434C129.889 32.1037 129.858 31.9731 129.808 31.847C129.759 31.7209 129.696 31.6083 129.61 31.5137C129.524 31.4192 129.425 31.3426 129.304 31.284C129.182 31.2255 129.051 31.194 128.903 31.194C128.754 31.194 128.61 31.221 128.484 31.275C128.358 31.3291 128.25 31.4011 128.164 31.4957C128.074 31.5903 128.002 31.7029 127.948 31.829C127.894 31.9551 127.867 32.0947 127.858 32.2434H129.894H129.898Z" fill="#192322"></path>
<path d="M131.407 30.613H132.227V31.3786H132.24C132.267 31.2705 132.317 31.1669 132.389 31.0634C132.461 30.9598 132.551 30.8697 132.655 30.7841C132.758 30.6985 132.875 30.631 133.002 30.5815C133.128 30.5319 133.258 30.5049 133.393 30.5049C133.497 30.5049 133.565 30.5049 133.605 30.5139C133.641 30.5184 133.682 30.5229 133.722 30.5274V31.3696C133.659 31.3606 133.601 31.3516 133.533 31.3426C133.47 31.3336 133.407 31.3291 133.344 31.3291C133.195 31.3291 133.056 31.3606 132.925 31.4192C132.794 31.4777 132.682 31.5633 132.583 31.6804C132.484 31.7975 132.407 31.9371 132.353 32.1037C132.299 32.2704 132.267 32.4685 132.267 32.6847V34.5673H131.394V30.6085L131.407 30.613Z" fill="#192322"></path>
<path d="M136.749 29.1045H140.523V29.9332H137.704V31.3654H140.176V32.1446H137.704V34.5721H136.749V29.1045Z" fill="#192322"></path>
<path d="M141.135 30.613H141.955V31.3786H141.969C141.996 31.2705 142.045 31.1669 142.117 31.0634C142.194 30.9598 142.279 30.8697 142.387 30.7841C142.491 30.6985 142.608 30.631 142.734 30.5815C142.86 30.5319 142.991 30.5049 143.126 30.5049C143.23 30.5049 143.297 30.5049 143.338 30.5139C143.374 30.5184 143.414 30.5229 143.455 30.5274V31.3696C143.392 31.3606 143.333 31.3516 143.266 31.3426C143.203 31.3336 143.14 31.3291 143.076 31.3291C142.928 31.3291 142.788 31.3606 142.658 31.4192C142.527 31.4777 142.414 31.5633 142.315 31.6804C142.216 31.793 142.14 31.9371 142.086 32.1037C142.032 32.2704 142 32.4685 142 32.6847V34.5673H141.126V30.6085L141.135 30.613Z" fill="#192322"></path>
<path d="M144.347 32.8198C144.347 32.973 144.369 33.1216 144.41 33.2657C144.455 33.4098 144.518 33.5314 144.603 33.6395C144.689 33.7476 144.802 33.8332 144.932 33.8963C145.063 33.9593 145.225 33.9908 145.405 33.9908C145.662 33.9908 145.864 33.9368 146.022 33.8242C146.18 33.7161 146.292 33.5495 146.369 33.3288H147.198C147.153 33.545 147.071 33.7341 146.959 33.9008C146.846 34.0674 146.711 34.2115 146.553 34.3241C146.396 34.4412 146.216 34.5268 146.022 34.5853C145.824 34.6439 145.621 34.6754 145.405 34.6754C145.094 34.6754 144.82 34.6259 144.576 34.5223C144.338 34.4187 144.135 34.2791 143.968 34.0944C143.802 33.9098 143.676 33.6936 143.594 33.4369C143.509 33.1802 143.468 32.9009 143.468 32.5947C143.468 32.3154 143.513 32.0497 143.603 31.793C143.694 31.5408 143.82 31.3201 143.986 31.1264C144.153 30.9327 144.351 30.7841 144.585 30.6715C144.82 30.5589 145.085 30.5049 145.383 30.5049C145.693 30.5049 145.972 30.5679 146.22 30.6985C146.468 30.8292 146.675 31.0003 146.837 31.2165C146.999 31.4327 147.121 31.6759 147.193 31.9551C147.265 32.2343 147.288 32.5181 147.252 32.8153H144.342L144.347 32.8198ZM146.382 32.2434C146.373 32.1037 146.342 31.9731 146.292 31.847C146.243 31.7209 146.18 31.6083 146.094 31.5137C146.009 31.4192 145.909 31.3426 145.788 31.284C145.666 31.2255 145.536 31.194 145.387 31.194C145.238 31.194 145.094 31.221 144.968 31.275C144.842 31.3291 144.734 31.4011 144.648 31.4957C144.558 31.5903 144.486 31.7029 144.432 31.829C144.378 31.9551 144.351 32.0947 144.342 32.2434H146.378H146.382Z" fill="#192322"></path>
<path d="M147.914 29.1045H148.787V29.9332H147.914V29.1045ZM147.914 30.6133H148.787V34.5721H147.914V30.6133Z" fill="#192322"></path>
<path d="M149.566 30.6133H152.782V31.2258L150.517 33.883H152.899V34.5721H149.413V33.9596L151.602 31.3024H149.566V30.6133Z" fill="#192322"></path>
<path d="M154.183 32.8198C154.183 32.973 154.205 33.1216 154.246 33.2657C154.291 33.4098 154.354 33.5314 154.44 33.6395C154.525 33.7476 154.638 33.8332 154.768 33.8963C154.899 33.9593 155.061 33.9908 155.241 33.9908C155.498 33.9908 155.701 33.9368 155.858 33.8242C156.016 33.7161 156.129 33.5495 156.205 33.3288H157.034C156.989 33.545 156.908 33.7341 156.795 33.9008C156.683 34.0674 156.547 34.2115 156.39 34.3241C156.232 34.4412 156.052 34.5268 155.858 34.5853C155.66 34.6439 155.458 34.6754 155.241 34.6754C154.931 34.6754 154.656 34.6259 154.413 34.5223C154.174 34.4187 153.971 34.2791 153.805 34.0944C153.638 33.9098 153.512 33.6936 153.431 33.4369C153.345 33.1802 153.305 32.9009 153.305 32.5947C153.305 32.3154 153.35 32.0497 153.44 31.793C153.53 31.5408 153.656 31.3201 153.823 31.1264C153.989 30.9327 154.187 30.7841 154.422 30.6715C154.656 30.5589 154.922 30.5049 155.219 30.5049C155.53 30.5049 155.809 30.5679 156.057 30.6985C156.304 30.8292 156.511 31.0003 156.674 31.2165C156.836 31.4327 156.957 31.6759 157.029 31.9551C157.101 32.2343 157.124 32.5181 157.088 32.8153H154.178L154.183 32.8198ZM156.219 32.2434C156.21 32.1037 156.178 31.9731 156.129 31.847C156.079 31.7209 156.016 31.6083 155.93 31.5137C155.845 31.4192 155.746 31.3426 155.624 31.284C155.503 31.2255 155.372 31.194 155.223 31.194C155.075 31.194 154.931 31.221 154.804 31.275C154.678 31.3291 154.57 31.4011 154.485 31.4957C154.395 31.5903 154.323 31.7029 154.268 31.829C154.214 31.9551 154.187 32.0947 154.178 32.2434H156.214H156.219Z" fill="#192322"></path>
<path d="M157.75 29.1045H158.624V29.9332H157.75V29.1045ZM157.75 30.6133H158.624V34.5721H157.75V30.6133Z" fill="#192322"></path>
<path d="M159.146 30.6132H159.804V29.4287H160.678V30.6132H161.466V31.2618H160.678V33.3741C160.678 33.4641 160.678 33.5452 160.691 33.6128C160.705 33.6803 160.718 33.7344 160.745 33.7794C160.772 33.8244 160.817 33.8605 160.871 33.883C160.925 33.9055 161.002 33.919 161.101 33.919C161.164 33.919 161.222 33.919 161.286 33.919C161.349 33.919 161.407 33.9055 161.47 33.892V34.5676C161.371 34.5766 161.281 34.5901 161.186 34.5991C161.092 34.6081 161.002 34.6126 160.903 34.6126C160.673 34.6126 160.488 34.5901 160.349 34.5496C160.209 34.5045 160.097 34.4415 160.02 34.3604C159.939 34.2748 159.889 34.1712 159.858 34.0406C159.831 33.9145 159.813 33.7659 159.808 33.6038V31.2663H159.151V30.6177L159.146 30.6132Z" fill="#192322"></path>
<path d="M162.722 33.3016C162.749 33.5584 162.844 33.734 163.015 33.8376C163.186 33.9412 163.384 33.9907 163.618 33.9907C163.699 33.9907 163.794 33.9862 163.898 33.9727C164.001 33.9592 164.1 33.9367 164.19 33.9007C164.28 33.8646 164.357 33.8106 164.416 33.743C164.474 33.6755 164.501 33.5854 164.497 33.4728C164.492 33.3602 164.452 33.2701 164.375 33.1981C164.298 33.126 164.199 33.0674 164.078 33.0269C163.956 32.9819 163.821 32.9458 163.668 32.9143C163.515 32.8828 163.357 32.8513 163.2 32.8152C163.037 32.7792 162.88 32.7342 162.731 32.6846C162.582 32.6351 162.447 32.563 162.326 32.4774C162.204 32.3919 162.11 32.2793 162.038 32.1442C161.965 32.009 161.929 31.8424 161.929 31.6442C161.929 31.4281 161.983 31.2479 162.087 31.1038C162.191 30.9597 162.326 30.8426 162.483 30.7525C162.646 30.6624 162.821 30.5994 163.019 30.5633C163.218 30.5273 163.402 30.5093 163.582 30.5093C163.785 30.5093 163.983 30.5318 164.168 30.5723C164.352 30.6174 164.524 30.6849 164.672 30.784C164.821 30.8786 164.947 31.0092 165.046 31.1623C165.145 31.32 165.208 31.5046 165.235 31.7253H164.325C164.285 31.5181 164.19 31.374 164.037 31.3065C163.889 31.2344 163.713 31.1984 163.519 31.1984C163.456 31.1984 163.384 31.2029 163.303 31.2119C163.218 31.2209 163.141 31.2434 163.064 31.2704C162.988 31.2974 162.929 31.338 162.875 31.392C162.821 31.4461 162.799 31.5136 162.799 31.6037C162.799 31.7118 162.835 31.7974 162.911 31.8649C162.988 31.9325 163.082 31.9865 163.204 32.0316C163.326 32.0766 163.461 32.1126 163.614 32.1442C163.767 32.1757 163.925 32.2072 164.087 32.2432C164.244 32.2793 164.402 32.3243 164.555 32.3739C164.708 32.4234 164.843 32.4955 164.965 32.581C165.087 32.6666 165.181 32.7792 165.258 32.9098C165.334 33.0404 165.37 33.2071 165.37 33.4007C165.37 33.6349 165.316 33.8331 165.208 33.9997C165.1 34.1619 164.961 34.297 164.789 34.3961C164.618 34.4952 164.429 34.5717 164.217 34.6168C164.01 34.6618 163.803 34.6843 163.596 34.6843C163.348 34.6843 163.114 34.6573 162.902 34.5987C162.691 34.5402 162.506 34.4591 162.353 34.342C162.2 34.2249 162.074 34.0853 161.983 33.9142C161.893 33.743 161.848 33.5403 161.844 33.3061H162.718L162.722 33.3016Z" fill="#192322"></path>
<path d="M165.605 30.6132H166.262V29.4287H167.136V30.6132H167.924V31.2618H167.136V33.3741C167.136 33.4641 167.136 33.5452 167.149 33.6128C167.163 33.6803 167.176 33.7344 167.203 33.7794C167.23 33.8244 167.276 33.8605 167.33 33.883C167.384 33.9055 167.46 33.919 167.559 33.919C167.622 33.919 167.681 33.919 167.744 33.919C167.807 33.919 167.866 33.9055 167.929 33.892V34.5676C167.83 34.5766 167.739 34.5901 167.645 34.5991C167.55 34.6081 167.46 34.6126 167.361 34.6126C167.131 34.6126 166.947 34.5901 166.807 34.5496C166.668 34.5045 166.555 34.4415 166.478 34.3604C166.397 34.2748 166.348 34.1712 166.316 34.0406C166.289 33.9145 166.271 33.7659 166.267 33.6038V31.2663H165.609V30.6177L165.605 30.6132Z" fill="#192322"></path>
<path d="M171.838 33.6936C171.838 33.8017 171.851 33.8783 171.878 33.9233C171.905 33.9683 171.959 33.9909 172.045 33.9909H172.135C172.171 33.9909 172.212 33.9864 172.257 33.9773V34.5809C172.225 34.5899 172.185 34.6034 172.14 34.6169C172.09 34.6304 172.041 34.6394 171.991 34.6529C171.941 34.6619 171.887 34.6709 171.838 34.6754C171.788 34.6799 171.743 34.6844 171.707 34.6844C171.527 34.6844 171.378 34.6484 171.261 34.5764C171.144 34.5043 171.068 34.3782 171.032 34.2025C170.861 34.3692 170.644 34.4953 170.392 34.5718C170.14 34.6484 169.897 34.6844 169.663 34.6844C169.482 34.6844 169.311 34.6619 169.149 34.6124C168.987 34.5628 168.843 34.4908 168.717 34.3962C168.591 34.3016 168.492 34.18 168.419 34.0359C168.347 33.8918 168.307 33.7206 168.307 33.527C168.307 33.2838 168.352 33.0811 168.442 32.928C168.532 32.7748 168.649 32.6532 168.793 32.5677C168.937 32.4821 169.104 32.419 169.284 32.3785C169.464 32.3425 169.649 32.3109 169.829 32.2884C169.987 32.2569 170.14 32.2344 170.28 32.2254C170.419 32.2164 170.55 32.1893 170.658 32.1623C170.766 32.1308 170.856 32.0857 170.919 32.0227C170.982 31.9596 171.014 31.8651 171.014 31.7344C171.014 31.6219 170.987 31.5318 170.933 31.4597C170.879 31.3877 170.811 31.3336 170.734 31.2931C170.658 31.2525 170.568 31.23 170.469 31.2165C170.37 31.203 170.28 31.1985 170.194 31.1985C169.951 31.1985 169.748 31.248 169.59 31.3516C169.433 31.4552 169.343 31.6128 169.32 31.8245H168.447C168.46 31.5678 168.523 31.3561 168.631 31.1895C168.739 31.0228 168.874 30.8877 169.041 30.7841C169.208 30.6806 169.392 30.6085 169.604 30.568C169.811 30.5274 170.027 30.5049 170.248 30.5049C170.442 30.5049 170.635 30.5274 170.82 30.568C171.009 30.6085 171.18 30.676 171.329 30.7661C171.478 30.8562 171.599 30.9778 171.694 31.1219C171.784 31.266 171.833 31.4462 171.833 31.6534V33.6891L171.838 33.6936ZM169.127 29.9644V29.1357H170V29.9644H169.127ZM170.964 32.5902C170.834 32.6757 170.667 32.7298 170.473 32.7478C170.28 32.7658 170.086 32.7928 169.892 32.8289C169.802 32.8424 169.712 32.8649 169.622 32.8919C169.532 32.919 169.46 32.9595 169.392 33.0045C169.325 33.0496 169.275 33.1171 169.235 33.1937C169.194 33.2702 169.176 33.3693 169.176 33.4819C169.176 33.5765 169.203 33.6621 169.262 33.7251C169.32 33.7882 169.383 33.8422 169.464 33.8828C169.545 33.9233 169.631 33.9458 169.726 33.9638C169.82 33.9773 169.906 33.9864 169.982 33.9864C170.081 33.9864 170.185 33.9728 170.298 33.9503C170.41 33.9278 170.514 33.8828 170.617 33.8197C170.716 33.7567 170.797 33.6801 170.865 33.5855C170.933 33.4909 170.964 33.3738 170.964 33.2387V32.5857V32.5902ZM171.32 29.1357V29.9644H170.446V29.1357H171.32Z" fill="#192322"></path>
<path d="M172.351 30.6132H173.009V29.4287H173.883V30.6132H174.671V31.2618H173.883V33.3741C173.883 33.4641 173.883 33.5452 173.896 33.6128C173.91 33.6803 173.923 33.7344 173.95 33.7794C173.977 33.8244 174.022 33.8605 174.076 33.883C174.13 33.9055 174.207 33.919 174.306 33.919C174.369 33.919 174.428 33.919 174.491 33.919C174.554 33.919 174.612 33.9055 174.675 33.892V34.5676C174.576 34.5766 174.486 34.5901 174.392 34.5991C174.297 34.6081 174.207 34.6126 174.108 34.6126C173.878 34.6126 173.693 34.5901 173.554 34.5496C173.414 34.5045 173.302 34.4415 173.225 34.3604C173.144 34.2748 173.094 34.1712 173.063 34.0406C173.036 33.9145 173.018 33.7659 173.013 33.6038V31.2663H172.356V30.6177L172.351 30.6132Z" fill="#192322"></path>
<path d="M174.869 30.6132H175.526V29.4287H176.4V30.6132H177.188V31.2618H176.4V33.3741C176.4 33.4641 176.4 33.5452 176.414 33.6128C176.427 33.6803 176.441 33.7344 176.468 33.7794C176.495 33.8244 176.54 33.8605 176.594 33.883C176.648 33.9055 176.724 33.919 176.824 33.919C176.887 33.919 176.945 33.919 177.008 33.919C177.071 33.919 177.13 33.9055 177.193 33.892V34.5676C177.094 34.5766 177.004 34.5901 176.909 34.5991C176.815 34.6081 176.724 34.6126 176.625 34.6126C176.396 34.6126 176.211 34.5901 176.071 34.5496C175.932 34.5045 175.819 34.4415 175.743 34.3604C175.662 34.2748 175.612 34.1712 175.581 34.0406C175.553 33.9145 175.535 33.7659 175.531 33.6038V31.2663H174.873V30.6177L174.869 30.6132Z" fill="#192322"></path>
<path d="M178.467 32.8198C178.467 32.973 178.49 33.1216 178.531 33.2657C178.576 33.4098 178.639 33.5314 178.724 33.6395C178.81 33.7476 178.922 33.8332 179.053 33.8963C179.184 33.9593 179.346 33.9908 179.526 33.9908C179.783 33.9908 179.985 33.9368 180.143 33.8242C180.301 33.7161 180.413 33.5495 180.49 33.3288H181.318C181.273 33.545 181.192 33.7341 181.08 33.9008C180.967 34.0674 180.832 34.2115 180.674 34.3241C180.517 34.4412 180.337 34.5268 180.143 34.5853C179.945 34.6439 179.742 34.6754 179.526 34.6754C179.215 34.6754 178.94 34.6259 178.697 34.5223C178.458 34.4187 178.256 34.2791 178.089 34.0944C177.923 33.9098 177.796 33.6936 177.715 33.4369C177.63 33.1802 177.589 32.9009 177.589 32.5947C177.589 32.3154 177.634 32.0497 177.724 31.793C177.814 31.5408 177.941 31.3201 178.107 31.1264C178.274 30.9327 178.472 30.7841 178.706 30.6715C178.94 30.5589 179.206 30.5049 179.503 30.5049C179.814 30.5049 180.093 30.5679 180.341 30.6985C180.589 30.8292 180.796 31.0003 180.958 31.2165C181.12 31.4327 181.242 31.6759 181.314 31.9551C181.386 32.2343 181.408 32.5181 181.372 32.8153H178.463L178.467 32.8198ZM180.508 32.2434C180.499 32.1037 180.467 31.9731 180.418 31.847C180.368 31.7209 180.305 31.6083 180.219 31.5137C180.134 31.4192 180.035 31.3426 179.913 31.284C179.792 31.2255 179.661 31.194 179.512 31.194C179.364 31.194 179.22 31.221 179.094 31.275C178.967 31.3291 178.859 31.4011 178.774 31.4957C178.684 31.5903 178.612 31.7029 178.558 31.829C178.504 31.9551 178.476 32.0947 178.467 32.2434H180.503H180.508Z" fill="#192322"></path>
<path d="M182.012 30.6131H182.841V31.1941L182.854 31.2076C182.985 30.9869 183.161 30.8158 183.377 30.6896C183.593 30.5635 183.827 30.5005 184.088 30.5005C184.521 30.5005 184.863 30.6131 185.115 30.8383C185.363 31.0635 185.489 31.4013 185.489 31.8471V34.5674H184.615V32.0768C184.606 31.7661 184.539 31.5409 184.417 31.4013C184.296 31.2616 184.102 31.1896 183.841 31.1896C183.692 31.1896 183.561 31.2166 183.444 31.2706C183.327 31.3247 183.228 31.3967 183.147 31.4913C183.066 31.5859 183.003 31.6985 182.958 31.8246C182.913 31.9507 182.89 32.0858 182.89 32.23V34.5674H182.017V30.6086L182.012 30.6131Z" fill="#192322"></path>
<path d="M53.6216 38.6118H57.3958V39.4405H54.5765V40.8727H57.049V41.6519H54.5765V44.0794H53.6216V38.6118Z" fill="#192322"></path>
<path d="M58.6525 42.3229C58.6525 42.4761 58.6751 42.6247 58.7156 42.7688C58.7606 42.9129 58.8237 43.039 58.9093 43.1426C58.9948 43.2507 59.1074 43.3363 59.238 43.3993C59.3686 43.4624 59.5308 43.4939 59.7109 43.4939C59.9676 43.4939 60.1703 43.4399 60.328 43.3273C60.4856 43.2192 60.5982 43.0525 60.6747 42.8319H61.5034C61.4584 43.048 61.3773 43.2372 61.2647 43.4084C61.1522 43.575 61.017 43.7191 60.8594 43.8317C60.7018 43.9443 60.5216 44.0344 60.328 44.0929C60.1298 44.1515 59.9271 44.183 59.7109 44.183C59.4002 44.183 59.1254 44.1335 58.8822 44.0299C58.639 43.9263 58.4409 43.7867 58.2742 43.602C58.1076 43.4174 57.9815 43.1967 57.9004 42.9445C57.8193 42.6922 57.7743 42.4085 57.7743 42.1022C57.7743 41.823 57.8193 41.5528 57.9094 41.3006C57.9995 41.0484 58.1256 40.8277 58.2922 40.634C58.4589 40.4448 58.657 40.2917 58.8912 40.1791C59.1254 40.0665 59.3912 40.0125 59.6884 40.0125C59.9992 40.0125 60.2784 40.0755 60.5261 40.2061C60.7738 40.3367 60.981 40.5079 61.1431 40.7241C61.3053 40.9403 61.4269 41.1835 61.4989 41.4627C61.571 41.7419 61.5935 42.0302 61.5575 42.3229H58.648H58.6525ZM60.6883 41.7509C60.6793 41.6113 60.6477 41.4807 60.5982 41.3546C60.5486 41.2285 60.4856 41.1159 60.4 41.0213C60.3144 40.9267 60.2154 40.8502 60.0938 40.7916C59.9722 40.7331 59.8415 40.7016 59.6929 40.7016C59.5443 40.7016 59.4002 40.7286 59.2741 40.7826C59.148 40.8367 59.0399 40.9087 58.9543 41.0033C58.8642 41.0979 58.7922 41.2105 58.7381 41.3366C58.6841 41.4627 58.657 41.6023 58.648 41.7509H60.6838H60.6883ZM60.0307 38.4722H61.0666L59.9812 39.5666H59.3461L60.0352 38.4722H60.0307Z" fill="#192322"></path>
<path d="M65.8901 44.0796H65.0614V43.5436H65.0478C64.9307 43.7733 64.7596 43.9399 64.5344 44.039C64.3092 44.1381 64.0705 44.1877 63.8228 44.1877C63.512 44.1877 63.2418 44.1336 63.0076 44.021C62.7734 43.9129 62.5843 43.7598 62.4311 43.5706C62.278 43.3815 62.1609 43.1563 62.0843 42.8996C62.0078 42.6428 61.9717 42.3636 61.9717 42.0709C61.9717 41.7151 62.0213 41.4043 62.1159 41.1431C62.2104 40.8818 62.3411 40.6702 62.5032 40.499C62.6653 40.3279 62.85 40.2063 63.0527 40.1252C63.2598 40.0486 63.4715 40.0081 63.6832 40.0081C63.8048 40.0081 63.9309 40.0216 64.057 40.0441C64.1831 40.0667 64.3092 40.1027 64.4263 40.1567C64.5434 40.2108 64.6515 40.2738 64.7506 40.3504C64.8497 40.4315 64.9353 40.5215 64.9983 40.6296H65.0118V38.6074H65.8856V44.0751L65.8901 44.0796ZM62.841 42.1429C62.841 42.3096 62.8635 42.4762 62.904 42.6428C62.9491 42.805 63.0121 42.9536 63.1022 43.0797C63.1923 43.2058 63.3049 43.3094 63.4445 43.386C63.5841 43.4625 63.7462 43.4986 63.9354 43.4986C64.1246 43.4986 64.2957 43.458 64.4353 43.377C64.5749 43.2959 64.692 43.1878 64.7776 43.0572C64.8677 42.9266 64.9353 42.7735 64.9758 42.6068C65.0208 42.4402 65.0388 42.269 65.0388 42.0979C65.0388 41.661 64.9398 41.3187 64.7461 41.071C64.5479 40.8278 64.2822 40.7017 63.9444 40.7017C63.7417 40.7017 63.5661 40.7422 63.4265 40.8278C63.2869 40.9134 63.1698 41.0215 63.0797 41.1566C62.9896 41.2917 62.9265 41.4448 62.8905 41.616C62.8545 41.7871 62.832 41.9628 62.832 42.1384L62.841 42.1429Z" fill="#192322"></path>
<path d="M67.4529 42.3229C67.4529 42.4761 67.4755 42.6247 67.516 42.7688C67.561 42.9129 67.6241 43.039 67.7097 43.1426C67.7952 43.2507 67.9078 43.3363 68.0384 43.3993C68.1691 43.4624 68.3312 43.4939 68.5113 43.4939C68.7681 43.4939 68.9707 43.4399 69.1284 43.3273C69.286 43.2192 69.3986 43.0525 69.4752 42.8319H70.3039C70.2588 43.048 70.1778 43.2372 70.0652 43.4084C69.9526 43.575 69.8175 43.7191 69.6598 43.8317C69.5022 43.9443 69.322 44.0344 69.1284 44.0929C68.9302 44.1515 68.7275 44.183 68.5113 44.183C68.2006 44.183 67.9258 44.1335 67.6826 44.0299C67.4394 43.9263 67.2413 43.7867 67.0746 43.602C66.908 43.4174 66.7819 43.1967 66.7008 42.9445C66.6197 42.6922 66.5747 42.4085 66.5747 42.1022C66.5747 41.823 66.6197 41.5528 66.7098 41.3006C66.7999 41.0484 66.926 40.8277 67.0926 40.634C67.2593 40.4448 67.4575 40.2917 67.6917 40.1791C67.9259 40.0665 68.1916 40.0125 68.4888 40.0125C68.7996 40.0125 69.0788 40.0755 69.3265 40.2061C69.5742 40.3367 69.7814 40.5079 69.9436 40.7241C70.1057 40.9403 70.2273 41.1835 70.2994 41.4627C70.3714 41.7419 70.3939 42.0302 70.3579 42.3229H67.4484H67.4529ZM69.4887 41.7509C69.4797 41.6113 69.4481 41.4807 69.3986 41.3546C69.3491 41.2285 69.286 41.1159 69.2004 41.0213C69.1149 40.9267 69.0158 40.8502 68.8942 40.7916C68.7726 40.7331 68.642 40.7016 68.4933 40.7016C68.3447 40.7016 68.2006 40.7286 68.0745 40.7826C67.9484 40.8367 67.8403 40.9087 67.7547 41.0033C67.6646 41.0979 67.5926 41.2105 67.5385 41.3366C67.4845 41.4627 67.4575 41.6023 67.4484 41.7509H69.4842H69.4887ZM68.8311 38.4722H69.867L68.7816 39.5666H68.1465L68.8356 38.4722H68.8311Z" fill="#192322"></path>
<path d="M70.9569 40.1208H71.7766V40.8864H71.7901C71.8171 40.7783 71.8666 40.6748 71.9387 40.5712C72.0108 40.4676 72.1008 40.3775 72.2044 40.2919C72.308 40.2064 72.4251 40.1388 72.5512 40.0893C72.6773 40.0397 72.8079 40.0127 72.9431 40.0127C73.0466 40.0127 73.1142 40.0127 73.1547 40.0217C73.1908 40.0262 73.2313 40.0307 73.2718 40.0352V40.8774C73.2088 40.8684 73.1502 40.8594 73.0827 40.8504C73.0196 40.8414 72.9566 40.8369 72.8935 40.8369C72.7449 40.8369 72.6053 40.8684 72.4747 40.927C72.344 40.9855 72.2315 41.0711 72.1324 41.1882C72.0333 41.3053 71.9567 41.4449 71.9027 41.6116C71.8486 41.7782 71.8171 41.9719 71.8171 42.1925V44.0751H70.9434V40.1163L70.9569 40.1208Z" fill="#192322"></path>
<path d="M76.8976 43.1965C76.8976 43.3046 76.9111 43.3812 76.9381 43.4262C76.9651 43.4712 77.0192 43.4938 77.1047 43.4938H77.1948C77.2309 43.4938 77.2714 43.4893 77.3164 43.4803V44.0838C77.2849 44.0928 77.2444 44.1063 77.1993 44.1198C77.1498 44.1333 77.1002 44.1423 77.0507 44.1558C77.0012 44.1648 76.9471 44.1738 76.8976 44.1783C76.848 44.1829 76.803 44.1874 76.767 44.1874C76.5868 44.1874 76.4382 44.1513 76.3211 44.0793C76.204 44.0072 76.1274 43.8811 76.0914 43.7054C75.9157 43.8721 75.7041 43.9982 75.4518 44.0748C75.1996 44.1513 74.9564 44.1874 74.7222 44.1874C74.5421 44.1874 74.3709 44.1648 74.2088 44.1153C74.0467 44.0658 73.9025 43.9937 73.7764 43.8991C73.6503 43.8045 73.5512 43.6829 73.4792 43.5388C73.4071 43.3947 73.3666 43.2235 73.3666 43.0299C73.3666 42.7867 73.4116 42.584 73.5017 42.4309C73.5918 42.2777 73.7089 42.1561 73.853 42.0706C73.9971 41.985 74.1638 41.9219 74.3439 41.8814C74.5241 41.8409 74.7087 41.8138 74.8934 41.7913C75.051 41.7598 75.2041 41.7373 75.3438 41.7283C75.4879 41.7148 75.614 41.6922 75.7221 41.6652C75.8302 41.6337 75.9202 41.5887 75.9833 41.5256C76.0463 41.4625 76.0779 41.368 76.0779 41.2374C76.0779 41.1248 76.0509 41.0347 75.9968 40.9626C75.9428 40.8906 75.8752 40.8365 75.7986 40.796C75.7221 40.7554 75.632 40.7329 75.5329 40.7194C75.4338 40.7059 75.3438 40.7014 75.2582 40.7014C75.015 40.7014 74.8123 40.7509 74.6547 40.8545C74.497 40.9581 74.407 41.1158 74.3889 41.3274H73.5152C73.5287 41.0707 73.5918 40.859 73.6999 40.6924C73.8079 40.5258 73.9431 40.3906 74.1097 40.2871C74.2763 40.1835 74.461 40.1159 74.6727 40.0709C74.8799 40.0303 75.096 40.0078 75.3167 40.0078C75.5104 40.0078 75.7041 40.0258 75.8932 40.0709C76.0824 40.1114 76.2535 40.179 76.4021 40.269C76.5508 40.3591 76.6724 40.4807 76.767 40.6248C76.857 40.769 76.9066 40.9491 76.9066 41.1563V43.192L76.8976 43.1965ZM76.0283 42.0931C75.8977 42.1787 75.7311 42.2327 75.5374 42.2507C75.3437 42.2687 75.1501 42.2958 74.9564 42.3318C74.8663 42.3453 74.7763 42.3678 74.6862 42.3948C74.6006 42.4219 74.5241 42.4624 74.4565 42.5074C74.3889 42.557 74.3394 42.62 74.2989 42.7011C74.2583 42.7822 74.2403 42.8767 74.2403 42.9893C74.2403 43.0884 74.2673 43.1695 74.3259 43.2325C74.3799 43.3001 74.4475 43.3496 74.5286 43.3902C74.6096 43.4262 74.6952 43.4532 74.7898 43.4712C74.8844 43.4848 74.9699 43.4938 75.0465 43.4938C75.1411 43.4938 75.2492 43.4803 75.3618 43.4577C75.4744 43.4352 75.578 43.3902 75.6815 43.3271C75.7806 43.2641 75.8662 43.1875 75.9292 43.0929C75.9968 42.9983 76.0283 42.8812 76.0283 42.7461V42.0976V42.0931Z" fill="#192322"></path>
<path d="M77.3749 40.1205H78.0324V38.936H78.9062V40.1205H79.6943V40.7736H78.9062V42.8859C78.9062 42.976 78.9062 43.057 78.9197 43.1246C78.9287 43.1921 78.9467 43.2462 78.9737 43.2912C79.0008 43.3363 79.0458 43.3723 79.0998 43.3948C79.1539 43.4173 79.2304 43.4308 79.3295 43.4308C79.3926 43.4308 79.4511 43.4308 79.5142 43.4308C79.5772 43.4308 79.6358 43.4173 79.6988 43.4038V44.0794C79.5998 44.0884 79.5052 44.0974 79.4151 44.1109C79.325 44.1199 79.2304 44.1244 79.1314 44.1244C78.9017 44.1244 78.717 44.1019 78.5774 44.0614C78.4378 44.0163 78.3252 43.9533 78.2486 43.8722C78.1676 43.7866 78.118 43.6831 78.0865 43.5524C78.0595 43.4263 78.0414 43.2777 78.0369 43.1156V40.7826H77.3794V40.1295L77.3749 40.1205Z" fill="#192322"></path>
<path d="M80.2753 38.6118H81.149V39.4405H80.2753V38.6118ZM80.2753 40.1206H81.149V44.0794H80.2753V40.1206Z" fill="#192322"></path>
<path d="M83.8423 44.1832C83.5271 44.1832 83.2433 44.1292 82.9956 44.0256C82.7479 43.922 82.5407 43.7779 82.3696 43.5932C82.1985 43.4086 82.0678 43.1879 81.9778 42.9357C81.8877 42.679 81.8427 42.3997 81.8427 42.0935C81.8427 41.7872 81.8877 41.5125 81.9778 41.2603C82.0678 41.0035 82.1985 40.7874 82.3696 40.6027C82.5407 40.418 82.7479 40.2739 82.9956 40.1703C83.2433 40.0667 83.5271 40.0127 83.8423 40.0127C84.1576 40.0127 84.4414 40.0667 84.6891 40.1703C84.9368 40.2739 85.144 40.418 85.3151 40.6027C85.4862 40.7874 85.6169 41.008 85.7069 41.2603C85.797 41.517 85.842 41.7917 85.842 42.0935C85.842 42.3952 85.797 42.679 85.7069 42.9357C85.6169 43.1924 85.4862 43.4086 85.3151 43.5932C85.144 43.7779 84.9368 43.922 84.6891 44.0256C84.4414 44.1292 84.1576 44.1832 83.8423 44.1832ZM83.8423 43.4941C84.036 43.4941 84.2027 43.4536 84.3468 43.3725C84.4909 43.2915 84.608 43.1834 84.6981 43.0528C84.7881 42.9222 84.8557 42.769 84.9007 42.6024C84.9458 42.4357 84.9638 42.2646 84.9638 42.0935C84.9638 41.9223 84.9413 41.7557 84.9007 41.589C84.8602 41.4224 84.7881 41.2693 84.6981 41.1386C84.608 41.008 84.4909 40.9045 84.3468 40.8189C84.2027 40.7333 84.036 40.6973 83.8423 40.6973C83.6487 40.6973 83.482 40.7378 83.3379 40.8189C83.1938 40.8999 83.0767 41.008 82.9866 41.1386C82.8965 41.2693 82.829 41.4179 82.7839 41.589C82.7389 41.7602 82.7209 41.9268 82.7209 42.0935C82.7209 42.2601 82.7434 42.4357 82.7839 42.6024C82.8245 42.769 82.8965 42.9177 82.9866 43.0528C83.0767 43.1834 83.1938 43.2915 83.3379 43.3725C83.482 43.4536 83.6487 43.4941 83.8423 43.4941Z" fill="#192322"></path>
<path d="M86.4995 40.1204H87.3282V40.7014L87.3417 40.7149C87.4723 40.4942 87.648 40.3231 87.8642 40.197C88.0804 40.0709 88.3146 40.0078 88.5758 40.0078C89.0081 40.0078 89.3504 40.1204 89.6026 40.3456C89.8549 40.5708 89.9765 40.9086 89.9765 41.3545V44.0748H89.1027V41.5887C89.0937 41.2779 89.0262 41.0527 88.9046 40.9131C88.783 40.7735 88.5893 40.7014 88.3326 40.7014C88.1839 40.7014 88.0533 40.7284 87.9362 40.7825C87.8191 40.8365 87.72 40.9086 87.639 41.0032C87.5579 41.0977 87.4949 41.2103 87.4453 41.3364C87.3958 41.4625 87.3778 41.5977 87.3778 41.7418V44.0748H86.504V40.1159L86.4995 40.1204Z" fill="#192322"></path>
<path d="M93.5434 42.8051C93.5704 43.0618 93.665 43.2374 93.8362 43.341C94.0073 43.4446 94.2055 43.4941 94.4397 43.4941C94.5207 43.4941 94.6153 43.4896 94.7189 43.4761C94.8225 43.4626 94.9216 43.4401 95.0117 43.4041C95.1017 43.368 95.1783 43.314 95.2368 43.2464C95.2954 43.1789 95.3224 43.0888 95.3179 42.9762C95.3134 42.8636 95.2729 42.7735 95.1963 42.7015C95.1197 42.6294 95.0207 42.5709 94.9036 42.5303C94.782 42.4853 94.6468 42.4493 94.4937 42.4177C94.3406 42.3862 94.1829 42.3547 94.0253 42.3187C93.8632 42.2826 93.7055 42.2421 93.5524 42.188C93.4038 42.1385 93.2687 42.0664 93.1471 41.9809C93.0255 41.8953 92.9309 41.7827 92.8588 41.6476C92.7868 41.5125 92.7507 41.3458 92.7507 41.1477C92.7507 40.9315 92.8048 40.7513 92.9084 40.6072C93.012 40.4631 93.1471 40.346 93.3047 40.2559C93.4623 40.1658 93.6425 40.1028 93.8407 40.0667C94.0388 40.0307 94.2235 40.0127 94.4036 40.0127C94.6063 40.0127 94.8045 40.0352 94.9891 40.0757C95.1738 40.1208 95.3449 40.1883 95.4936 40.2874C95.6422 40.3865 95.7683 40.5126 95.8674 40.6658C95.9665 40.8234 96.0295 41.008 96.0565 41.2287H95.1468C95.1062 41.0216 95.0117 40.8774 94.8585 40.8099C94.7099 40.7378 94.5342 40.7018 94.3406 40.7018C94.2775 40.7018 94.2055 40.7063 94.1244 40.7153C94.0388 40.7243 93.9623 40.7468 93.8857 40.7738C93.8091 40.8009 93.7506 40.8414 93.6965 40.8954C93.6425 40.9495 93.62 41.0216 93.62 41.1071C93.62 41.2152 93.656 41.3008 93.7326 41.3683C93.8046 41.4359 93.9037 41.4899 94.0253 41.535C94.1469 41.58 94.282 41.6161 94.4352 41.6476C94.5883 41.6791 94.7459 41.7106 94.9081 41.7467C95.0657 41.7827 95.2233 41.8277 95.3765 41.8773C95.5296 41.9268 95.6647 41.9989 95.7863 42.0845C95.9079 42.17 96.0025 42.2826 96.0791 42.4132C96.1511 42.5438 96.1917 42.7105 96.1917 42.9041C96.1917 43.1383 96.1376 43.3365 96.0295 43.5032C95.9214 43.6653 95.7818 43.8004 95.6107 43.8995C95.4395 44.0031 95.2504 44.0751 95.0387 44.1202C94.8315 44.1652 94.6243 44.1877 94.4171 44.1877C94.1649 44.1877 93.9352 44.1607 93.7236 44.1022C93.5119 44.0481 93.3272 43.9625 93.1741 43.8454C93.021 43.7283 92.8949 43.5887 92.8048 43.4176C92.7147 43.2464 92.6697 43.0438 92.6652 42.8096H93.5389L93.5434 42.8051Z" fill="#192322"></path>
<path d="M100.268 44.0795H99.4119V43.53H99.3984C99.2903 43.7282 99.1326 43.8903 98.921 44.0074C98.7093 44.129 98.4931 44.1876 98.2724 44.1876C97.75 44.1876 97.3762 44.0569 97.142 43.8002C96.9078 43.5435 96.7952 43.1517 96.7952 42.6337V40.1206H97.6689V42.5482C97.6689 42.895 97.7365 43.1382 97.8671 43.2823C97.9977 43.4264 98.1869 43.4985 98.4256 43.4985C98.6102 43.4985 98.7633 43.4714 98.8849 43.4129C99.0065 43.3543 99.1056 43.2823 99.1822 43.1877C99.2588 43.0931 99.3128 42.9805 99.3488 42.8454C99.3804 42.7148 99.3984 42.5707 99.3984 42.4176V40.1206H100.272V44.0795H100.268Z" fill="#192322"></path>
<path d="M101.137 38.6118H102.011V39.4405H101.137V38.6118ZM101.137 40.1206H102.011V44.0794H101.137V40.1206Z" fill="#192322"></path>
<path d="M103.551 42.8051C103.578 43.0618 103.673 43.2374 103.844 43.341C104.015 43.4446 104.213 43.4941 104.447 43.4941C104.528 43.4941 104.623 43.4896 104.727 43.4761C104.83 43.4626 104.929 43.4401 105.019 43.4041C105.109 43.368 105.186 43.314 105.245 43.2464C105.303 43.1789 105.33 43.0888 105.326 42.9762C105.321 42.8636 105.281 42.7735 105.204 42.7015C105.127 42.6294 105.028 42.5709 104.911 42.5303C104.79 42.4853 104.655 42.4493 104.501 42.4177C104.348 42.3862 104.191 42.3547 104.033 42.3187C103.871 42.2826 103.713 42.2421 103.56 42.188C103.411 42.1385 103.276 42.0664 103.155 41.9809C103.033 41.8953 102.939 41.7827 102.867 41.6476C102.794 41.5125 102.758 41.3458 102.758 41.1477C102.758 40.9315 102.812 40.7513 102.916 40.6072C103.02 40.4631 103.155 40.346 103.312 40.2559C103.47 40.1658 103.65 40.1028 103.848 40.0667C104.047 40.0307 104.231 40.0127 104.411 40.0127C104.614 40.0127 104.812 40.0352 104.997 40.0757C105.181 40.1208 105.353 40.1883 105.501 40.2874C105.65 40.3865 105.776 40.5126 105.875 40.6658C105.974 40.8234 106.037 41.008 106.064 41.2287H105.154C105.114 41.0216 105.019 40.8774 104.866 40.8099C104.718 40.7378 104.542 40.7018 104.348 40.7018C104.285 40.7018 104.213 40.7063 104.132 40.7153C104.047 40.7243 103.97 40.7468 103.893 40.7738C103.817 40.8009 103.758 40.8414 103.704 40.8954C103.65 40.9495 103.628 41.0216 103.628 41.1071C103.628 41.2152 103.664 41.3008 103.74 41.3683C103.812 41.4359 103.911 41.4899 104.033 41.535C104.155 41.58 104.29 41.6161 104.443 41.6476C104.596 41.6791 104.754 41.7106 104.916 41.7467C105.073 41.7827 105.231 41.8277 105.384 41.8773C105.537 41.9268 105.672 41.9989 105.794 42.0845C105.916 42.17 106.01 42.2826 106.087 42.4132C106.159 42.5438 106.199 42.7105 106.199 42.9041C106.199 43.1383 106.145 43.3365 106.037 43.5032C105.929 43.6653 105.789 43.8004 105.618 43.8995C105.447 44.0031 105.258 44.0751 105.046 44.1202C104.839 44.1652 104.632 44.1877 104.425 44.1877C104.173 44.1877 103.943 44.1607 103.731 44.1022C103.52 44.0481 103.335 43.9625 103.182 43.8454C103.029 43.7283 102.903 43.5887 102.812 43.4176C102.722 43.2464 102.677 43.0438 102.673 42.8096H103.547L103.551 42.8051Z" fill="#192322"></path>
<path d="M107.456 42.8051C107.483 43.0618 107.577 43.2374 107.749 43.341C107.92 43.4446 108.118 43.4941 108.352 43.4941C108.433 43.4941 108.528 43.4896 108.631 43.4761C108.735 43.4626 108.834 43.4401 108.924 43.4041C109.014 43.368 109.091 43.314 109.149 43.2464C109.208 43.1789 109.235 43.0888 109.23 42.9762C109.226 42.8636 109.185 42.7735 109.109 42.7015C109.032 42.6294 108.933 42.5709 108.816 42.5303C108.694 42.4853 108.559 42.4493 108.406 42.4177C108.253 42.3862 108.095 42.3547 107.938 42.3187C107.776 42.2826 107.618 42.2421 107.465 42.188C107.316 42.1385 107.181 42.0664 107.059 41.9809C106.938 41.8953 106.843 41.7827 106.771 41.6476C106.699 41.5125 106.663 41.3458 106.663 41.1477C106.663 40.9315 106.717 40.7513 106.821 40.6072C106.924 40.4631 107.059 40.346 107.217 40.2559C107.375 40.1658 107.555 40.1028 107.753 40.0667C107.951 40.0307 108.136 40.0127 108.316 40.0127C108.519 40.0127 108.717 40.0352 108.901 40.0757C109.086 40.1208 109.257 40.1883 109.406 40.2874C109.555 40.3865 109.681 40.5126 109.78 40.6658C109.879 40.8234 109.942 41.008 109.969 41.2287H109.059C109.019 41.0216 108.924 40.8774 108.771 40.8099C108.622 40.7378 108.447 40.7018 108.253 40.7018C108.19 40.7018 108.118 40.7063 108.037 40.7153C107.951 40.7243 107.875 40.7468 107.798 40.7738C107.721 40.8009 107.663 40.8414 107.609 40.8954C107.555 40.9495 107.532 41.0216 107.532 41.1071C107.532 41.2152 107.568 41.3008 107.645 41.3683C107.717 41.4359 107.816 41.4899 107.938 41.535C108.059 41.58 108.194 41.6161 108.348 41.6476C108.501 41.6791 108.658 41.7106 108.82 41.7467C108.978 41.7827 109.136 41.8277 109.289 41.8773C109.442 41.9268 109.577 41.9989 109.699 42.0845C109.82 42.17 109.915 42.2826 109.991 42.4132C110.063 42.5438 110.104 42.7105 110.104 42.9041C110.104 43.1383 110.05 43.3365 109.942 43.5032C109.834 43.6653 109.694 43.8004 109.523 43.8995C109.352 44.0031 109.163 44.0751 108.951 44.1202C108.744 44.1652 108.537 44.1877 108.329 44.1877C108.077 44.1877 107.848 44.1607 107.636 44.1022C107.424 44.0481 107.24 43.9625 107.086 43.8454C106.933 43.7283 106.807 43.5887 106.717 43.4176C106.627 43.2464 106.582 43.0438 106.578 42.8096H107.451L107.456 42.8051Z" fill="#192322"></path>
<path d="M111.383 42.3232C111.383 42.4763 111.406 42.6249 111.446 42.769C111.491 42.9132 111.554 43.0393 111.64 43.1428C111.726 43.2509 111.838 43.3365 111.969 43.3996C112.099 43.4626 112.261 43.4941 112.442 43.4941C112.698 43.4941 112.901 43.4401 113.059 43.3275C113.216 43.2194 113.329 43.0528 113.405 42.8321H114.234C114.189 43.0483 114.108 43.2374 113.995 43.4086C113.883 43.5752 113.748 43.7193 113.59 43.8319C113.432 43.9445 113.252 44.0346 113.059 44.0932C112.861 44.1517 112.658 44.1832 112.442 44.1832C112.131 44.1832 111.856 44.1337 111.613 44.0301C111.37 43.9265 111.172 43.7869 111.005 43.6022C110.838 43.4176 110.712 43.1969 110.631 42.9447C110.55 42.6925 110.505 42.4087 110.505 42.1025C110.505 41.8232 110.55 41.553 110.64 41.3008C110.73 41.0486 110.856 40.8279 111.023 40.6342C111.19 40.4451 111.388 40.2919 111.622 40.1793C111.856 40.0667 112.122 40.0127 112.419 40.0127C112.73 40.0127 113.009 40.0757 113.257 40.2064C113.505 40.337 113.712 40.5081 113.874 40.7243C114.036 40.9405 114.158 41.1837 114.23 41.4629C114.302 41.7422 114.324 42.0304 114.288 42.3232H111.379H111.383ZM113.419 41.7512C113.41 41.6116 113.378 41.4809 113.329 41.3548C113.279 41.2287 113.216 41.1161 113.131 41.0215C113.045 40.927 112.946 40.8504 112.824 40.7919C112.703 40.7333 112.572 40.7018 112.424 40.7018C112.275 40.7018 112.131 40.7288 112.005 40.7828C111.879 40.8369 111.771 40.909 111.685 41.0035C111.595 41.0981 111.523 41.2107 111.469 41.3368C111.415 41.4629 111.388 41.6025 111.379 41.7512H113.414H113.419Z" fill="#192322"></path>
<path d="M120.985 44.0796H120.157V43.5436H120.143C120.026 43.7733 119.855 43.9399 119.63 44.039C119.404 44.1381 119.166 44.1877 118.918 44.1877C118.607 44.1877 118.337 44.1336 118.103 44.021C117.869 43.9129 117.68 43.7598 117.526 43.5706C117.373 43.3815 117.256 43.1563 117.18 42.8996C117.103 42.6428 117.067 42.3636 117.067 42.0709C117.067 41.7151 117.117 41.4043 117.211 41.1431C117.306 40.8818 117.436 40.6702 117.598 40.499C117.761 40.3279 117.945 40.2063 118.148 40.1252C118.355 40.0486 118.567 40.0081 118.778 40.0081C118.9 40.0081 119.026 40.0216 119.152 40.0441C119.278 40.0667 119.405 40.1027 119.522 40.1567C119.639 40.2108 119.747 40.2738 119.846 40.3504C119.945 40.4315 120.031 40.5215 120.094 40.6296H120.107V38.6074H120.981V44.0751L120.985 44.0796ZM117.936 42.1429C117.936 42.3096 117.959 42.4762 117.999 42.6428C118.044 42.805 118.107 42.9536 118.197 43.0797C118.288 43.2058 118.4 43.3094 118.54 43.386C118.679 43.4625 118.842 43.4986 119.031 43.4986C119.22 43.4986 119.391 43.458 119.531 43.377C119.67 43.2959 119.787 43.1878 119.873 43.0572C119.963 42.9266 120.031 42.7735 120.071 42.6068C120.116 42.4402 120.134 42.269 120.134 42.0979C120.134 41.661 120.035 41.3187 119.841 41.071C119.643 40.8278 119.377 40.7017 119.04 40.7017C118.837 40.7017 118.661 40.7422 118.522 40.8278C118.382 40.9134 118.265 41.0215 118.175 41.1566C118.085 41.2917 118.022 41.4448 117.986 41.616C117.95 41.7871 117.927 41.9628 117.927 42.1384L117.936 42.1429Z" fill="#192322"></path>
<path d="M122.548 42.3232C122.548 42.4763 122.571 42.6249 122.611 42.769C122.656 42.9132 122.719 43.0393 122.805 43.1428C122.89 43.2509 123.003 43.3365 123.134 43.3996C123.264 43.4626 123.426 43.4941 123.606 43.4941C123.863 43.4941 124.066 43.4401 124.223 43.3275C124.381 43.2194 124.494 43.0528 124.57 42.8321H125.399C125.354 43.0483 125.273 43.2374 125.16 43.4086C125.048 43.5752 124.913 43.7193 124.755 43.8319C124.597 43.9445 124.417 44.0346 124.223 44.0932C124.025 44.1517 123.823 44.1832 123.606 44.1832C123.296 44.1832 123.021 44.1337 122.778 44.0301C122.535 43.9265 122.336 43.7869 122.17 43.6022C122.003 43.4176 121.877 43.1969 121.796 42.9447C121.715 42.6925 121.67 42.4087 121.67 42.1025C121.67 41.8232 121.715 41.553 121.805 41.3008C121.895 41.0486 122.021 40.8279 122.188 40.6342C122.354 40.4451 122.553 40.2919 122.787 40.1793C123.021 40.0667 123.287 40.0127 123.584 40.0127C123.895 40.0127 124.174 40.0757 124.422 40.2064C124.669 40.337 124.877 40.5081 125.039 40.7243C125.201 40.9405 125.322 41.1837 125.394 41.4629C125.467 41.7422 125.489 42.0304 125.453 42.3232H122.544H122.548ZM124.584 41.7512C124.575 41.6116 124.543 41.4809 124.494 41.3548C124.444 41.2287 124.381 41.1161 124.296 41.0215C124.21 40.927 124.111 40.8504 123.989 40.7919C123.868 40.7333 123.737 40.7018 123.588 40.7018C123.44 40.7018 123.296 40.7288 123.17 40.7828C123.043 40.8369 122.935 40.909 122.85 41.0035C122.76 41.0981 122.688 41.2107 122.634 41.3368C122.58 41.4629 122.553 41.6025 122.544 41.7512H124.579H124.584Z" fill="#192322"></path>
<path d="M126.71 42.8051C126.737 43.0618 126.831 43.2374 127.002 43.341C127.174 43.4446 127.372 43.4941 127.606 43.4941C127.687 43.4941 127.782 43.4896 127.885 43.4761C127.989 43.4626 128.088 43.4401 128.178 43.4041C128.268 43.368 128.345 43.314 128.403 43.2464C128.462 43.1789 128.489 43.0888 128.484 42.9762C128.48 42.8636 128.439 42.7735 128.363 42.7015C128.286 42.6294 128.187 42.5709 128.07 42.5303C127.948 42.4853 127.813 42.4493 127.66 42.4177C127.507 42.3862 127.349 42.3547 127.192 42.3187C127.029 42.2826 126.872 42.2421 126.719 42.188C126.57 42.1385 126.435 42.0664 126.313 41.9809C126.192 41.8953 126.097 41.7827 126.025 41.6476C125.953 41.5125 125.917 41.3458 125.917 41.1477C125.917 40.9315 125.971 40.7513 126.075 40.6072C126.178 40.4631 126.313 40.346 126.471 40.2559C126.629 40.1658 126.809 40.1028 127.007 40.0667C127.205 40.0307 127.39 40.0127 127.57 40.0127C127.773 40.0127 127.971 40.0352 128.155 40.0757C128.34 40.1208 128.511 40.1883 128.66 40.2874C128.808 40.3865 128.935 40.5126 129.034 40.6658C129.133 40.8234 129.196 41.008 129.223 41.2287H128.313C128.272 41.0216 128.178 40.8774 128.025 40.8099C127.876 40.7378 127.701 40.7018 127.507 40.7018C127.444 40.7018 127.372 40.7063 127.291 40.7153C127.205 40.7243 127.129 40.7468 127.052 40.7738C126.975 40.8009 126.917 40.8414 126.863 40.8954C126.809 40.9495 126.786 41.0216 126.786 41.1071C126.786 41.2152 126.822 41.3008 126.899 41.3683C126.971 41.4359 127.07 41.4899 127.192 41.535C127.313 41.58 127.448 41.6161 127.601 41.6476C127.755 41.6791 127.912 41.7106 128.074 41.7467C128.232 41.7827 128.39 41.8277 128.543 41.8773C128.696 41.9268 128.831 41.9989 128.953 42.0845C129.074 42.17 129.169 42.2826 129.245 42.4132C129.317 42.5438 129.358 42.7105 129.358 42.9041C129.358 43.1383 129.304 43.3365 129.196 43.5032C129.088 43.6653 128.948 43.8004 128.777 43.8995C128.606 44.0031 128.417 44.0751 128.205 44.1202C127.998 44.1652 127.791 44.1877 127.583 44.1877C127.331 44.1877 127.101 44.1607 126.89 44.1022C126.678 44.0481 126.493 43.9625 126.34 43.8454C126.187 43.7283 126.061 43.5887 125.971 43.4176C125.881 43.2464 125.836 43.0438 125.831 42.8096H126.705L126.71 42.8051Z" fill="#192322"></path>
<path d="M133.227 42.2556C133.227 42.4628 133.263 42.643 133.335 42.7916C133.407 42.9402 133.506 43.0618 133.632 43.1564C133.758 43.251 133.907 43.3185 134.073 43.3636C134.24 43.4086 134.42 43.4266 134.614 43.4266C134.821 43.4266 135.001 43.4041 135.15 43.3546C135.298 43.305 135.415 43.242 135.51 43.1654C135.605 43.0889 135.668 42.9988 135.708 42.8997C135.749 42.8006 135.771 42.7015 135.771 42.5979C135.771 42.3908 135.726 42.2331 135.632 42.134C135.537 42.035 135.433 41.9629 135.321 41.9224C135.127 41.8503 134.902 41.7827 134.645 41.7197C134.389 41.6566 134.069 41.5711 133.69 41.472C133.456 41.4089 133.258 41.3279 133.105 41.2288C132.952 41.1297 132.826 41.0171 132.736 40.8955C132.646 40.7739 132.578 40.6433 132.542 40.5037C132.506 40.364 132.483 40.2244 132.483 40.0848C132.483 39.8101 132.542 39.5714 132.655 39.3687C132.772 39.166 132.92 38.9994 133.109 38.8688C133.299 38.7382 133.515 38.6391 133.753 38.576C133.992 38.513 134.235 38.4814 134.483 38.4814C134.767 38.4814 135.037 38.5175 135.289 38.594C135.542 38.6706 135.762 38.7787 135.956 38.9273C136.145 39.076 136.298 39.2561 136.411 39.4723C136.523 39.6885 136.577 39.9407 136.577 40.2244H135.623C135.596 39.8731 135.478 39.6254 135.262 39.4768C135.046 39.3327 134.776 39.2606 134.443 39.2606C134.33 39.2606 134.217 39.2741 134.096 39.2966C133.974 39.3192 133.871 39.3597 133.776 39.4092C133.681 39.4588 133.6 39.5353 133.533 39.6254C133.465 39.7155 133.438 39.8326 133.438 39.9722C133.438 40.1659 133.497 40.319 133.618 40.4271C133.74 40.5352 133.893 40.6208 134.091 40.6748C134.114 40.6793 134.19 40.7018 134.334 40.7379C134.474 40.7739 134.632 40.8189 134.807 40.864C134.983 40.909 135.15 40.954 135.316 40.9991C135.483 41.0441 135.6 41.0756 135.672 41.0937C135.852 41.1477 136.005 41.2243 136.141 41.3234C136.271 41.4179 136.384 41.5305 136.474 41.6566C136.564 41.7827 136.627 41.9179 136.672 42.0575C136.717 42.1971 136.735 42.3412 136.735 42.4853C136.735 42.7916 136.672 43.0528 136.546 43.269C136.42 43.4852 136.258 43.6653 136.05 43.8005C135.843 43.9356 135.614 44.0392 135.352 44.1022C135.091 44.1653 134.825 44.1968 134.555 44.1968C134.244 44.1968 133.952 44.1608 133.672 44.0842C133.398 44.0076 133.159 43.8905 132.952 43.7329C132.749 43.5753 132.582 43.3726 132.461 43.1249C132.339 42.8772 132.276 42.5844 132.272 42.2466H133.227V42.2556Z" fill="#192322"></path>
<path d="M137.393 38.6118H138.266V39.4405H137.393V38.6118ZM137.393 40.1206H138.266V44.0794H137.393V40.1206Z" fill="#192322"></path>
<path d="M138.748 40.1205H139.406V38.936H140.28V40.1205H141.068V40.7736H140.28V42.8859C140.28 42.976 140.28 43.057 140.293 43.1246C140.302 43.1921 140.32 43.2462 140.347 43.2912C140.374 43.3363 140.419 43.3723 140.473 43.3948C140.527 43.4173 140.604 43.4308 140.703 43.4308C140.766 43.4308 140.825 43.4308 140.888 43.4308C140.946 43.4308 141.009 43.4173 141.072 43.4038V44.0794C140.973 44.0884 140.879 44.0974 140.789 44.1109C140.694 44.1199 140.604 44.1244 140.505 44.1244C140.275 44.1244 140.091 44.1019 139.951 44.0614C139.811 44.0163 139.699 43.9533 139.622 43.8722C139.541 43.7866 139.492 43.6831 139.46 43.5524C139.433 43.4263 139.415 43.2777 139.41 43.1156V40.7826H138.753V40.1295L138.748 40.1205Z" fill="#192322"></path>
<path d="M142.306 42.3232C142.306 42.4763 142.329 42.6249 142.369 42.769C142.414 42.9132 142.477 43.0393 142.563 43.1428C142.649 43.2509 142.761 43.3365 142.892 43.3996C143.022 43.4626 143.185 43.4941 143.365 43.4941C143.621 43.4941 143.824 43.4401 143.982 43.3275C144.139 43.2194 144.252 43.0528 144.329 42.8321H145.157C145.112 43.0483 145.031 43.2374 144.919 43.4086C144.806 43.5797 144.671 43.7193 144.513 43.8319C144.356 43.9445 144.175 44.0346 143.982 44.0932C143.784 44.1517 143.581 44.1832 143.365 44.1832C143.054 44.1832 142.779 44.1337 142.536 44.0301C142.297 43.9265 142.095 43.7869 141.928 43.6022C141.761 43.4176 141.635 43.1969 141.554 42.9447C141.469 42.688 141.428 42.4087 141.428 42.1025C141.428 41.8232 141.473 41.553 141.563 41.3008C141.653 41.0486 141.779 40.8279 141.946 40.6342C142.113 40.4451 142.311 40.2919 142.545 40.1793C142.779 40.0667 143.045 40.0127 143.342 40.0127C143.653 40.0127 143.932 40.0757 144.18 40.2064C144.428 40.337 144.635 40.5081 144.797 40.7243C144.959 40.9405 145.081 41.1837 145.153 41.4629C145.225 41.7422 145.247 42.0304 145.211 42.3232H142.302H142.306ZM144.347 41.7512C144.338 41.6116 144.306 41.4809 144.257 41.3548C144.207 41.2287 144.144 41.1161 144.058 41.0215C143.973 40.927 143.874 40.8504 143.752 40.7919C143.63 40.7333 143.5 40.7018 143.351 40.7018C143.203 40.7018 143.058 40.7288 142.932 40.7828C142.806 40.8369 142.698 40.909 142.613 41.0035C142.527 41.0981 142.45 41.2107 142.396 41.3368C142.342 41.4629 142.315 41.6025 142.306 41.7512H144.342H144.347Z" fill="#192322"></path>
<path d="M146.472 42.8051C146.499 43.0618 146.594 43.2374 146.765 43.341C146.936 43.4446 147.134 43.4941 147.369 43.4941C147.45 43.4941 147.544 43.4896 147.648 43.4761C147.751 43.4626 147.851 43.4401 147.941 43.4041C148.031 43.368 148.107 43.314 148.166 43.2464C148.224 43.1789 148.251 43.0888 148.247 42.9762C148.242 42.8636 148.202 42.7735 148.125 42.7015C148.049 42.6294 147.95 42.5709 147.828 42.5303C147.706 42.4853 147.571 42.4493 147.418 42.4177C147.265 42.3862 147.107 42.3547 146.95 42.3187C146.788 42.2826 146.63 42.2421 146.481 42.188C146.333 42.1385 146.198 42.0664 146.076 41.9809C145.954 41.8953 145.86 41.7827 145.788 41.6476C145.716 41.5125 145.68 41.3458 145.68 41.1477C145.68 40.9315 145.734 40.7513 145.837 40.6072C145.941 40.4631 146.076 40.346 146.234 40.2559C146.396 40.1658 146.571 40.1028 146.77 40.0667C146.968 40.0307 147.152 40.0127 147.333 40.0127C147.535 40.0127 147.733 40.0352 147.918 40.0757C148.103 40.1208 148.274 40.1883 148.423 40.2874C148.571 40.3865 148.697 40.5126 148.796 40.6658C148.895 40.8234 148.958 41.008 148.986 41.2287H148.076C148.035 41.0216 147.941 40.8774 147.787 40.8099C147.639 40.7378 147.463 40.7018 147.27 40.7018C147.206 40.7018 147.134 40.7063 147.053 40.7153C146.968 40.7243 146.891 40.7468 146.815 40.7738C146.738 40.8009 146.68 40.8414 146.625 40.8954C146.571 40.9495 146.549 41.0216 146.549 41.1071C146.549 41.2152 146.585 41.3008 146.662 41.3683C146.738 41.4359 146.833 41.4899 146.954 41.535C147.076 41.58 147.211 41.6161 147.364 41.6476C147.517 41.6791 147.675 41.7106 147.837 41.7467C147.995 41.7827 148.152 41.8277 148.305 41.8773C148.459 41.9268 148.594 41.9989 148.715 42.0845C148.837 42.17 148.931 42.2826 149.008 42.4132C149.08 42.5438 149.121 42.7105 149.121 42.9041C149.121 43.1383 149.067 43.3365 148.958 43.5032C148.85 43.6653 148.711 43.8004 148.54 43.8995C148.368 44.0031 148.179 44.0751 147.968 44.1202C147.76 44.1652 147.553 44.1877 147.346 44.1877C147.098 44.1877 146.864 44.1607 146.653 44.1022C146.441 44.0481 146.256 43.9625 146.103 43.8454C145.95 43.7283 145.824 43.5887 145.734 43.4176C145.644 43.2464 145.599 43.0438 145.594 42.8096H146.468L146.472 42.8051Z" fill="#192322"></path>
<path d="M155.966 44.0796H155.138V43.5436H155.124C155.007 43.7733 154.836 43.9399 154.611 44.039C154.386 44.1381 154.147 44.1877 153.899 44.1877C153.588 44.1877 153.318 44.1336 153.084 44.021C152.85 43.9129 152.661 43.7598 152.507 43.5706C152.354 43.3815 152.237 43.1563 152.161 42.8996C152.084 42.6428 152.048 42.3636 152.048 42.0709C152.048 41.7151 152.098 41.4043 152.192 41.1431C152.287 40.8818 152.417 40.6702 152.58 40.499C152.742 40.3324 152.922 40.2063 153.129 40.1252C153.336 40.0486 153.548 40.0081 153.76 40.0081C153.881 40.0081 154.007 40.0216 154.133 40.0441C154.259 40.0667 154.381 40.1027 154.503 40.1567C154.624 40.2108 154.728 40.2738 154.827 40.3504C154.926 40.427 155.012 40.5215 155.075 40.6296H155.088V38.6074H155.962V44.0751L155.966 44.0796ZM152.922 42.1429C152.922 42.3096 152.944 42.4762 152.985 42.6428C153.03 42.805 153.093 42.9536 153.183 43.0797C153.273 43.2058 153.386 43.3094 153.525 43.386C153.665 43.4625 153.827 43.4986 154.016 43.4986C154.205 43.4986 154.377 43.458 154.516 43.377C154.656 43.2959 154.773 43.1878 154.863 43.0572C154.953 42.9266 155.021 42.7735 155.061 42.6068C155.106 42.4402 155.124 42.269 155.124 42.0979C155.124 41.661 155.025 41.3187 154.831 41.071C154.638 40.8233 154.368 40.7017 154.03 40.7017C153.827 40.7017 153.651 40.7422 153.512 40.8278C153.372 40.9134 153.255 41.0215 153.17 41.1566C153.079 41.2917 153.016 41.4448 152.976 41.616C152.935 41.7871 152.917 41.9628 152.917 42.1384L152.922 42.1429Z" fill="#192322"></path>
<path d="M157.529 42.3232C157.529 42.4763 157.552 42.6249 157.592 42.769C157.637 42.9132 157.701 43.0393 157.786 43.1428C157.872 43.2509 157.984 43.3365 158.115 43.3996C158.245 43.4626 158.408 43.4941 158.588 43.4941C158.844 43.4941 159.047 43.4401 159.205 43.3275C159.362 43.2194 159.475 43.0528 159.552 42.8321H160.38C160.335 43.0483 160.254 43.2374 160.142 43.4086C160.029 43.5797 159.894 43.7193 159.736 43.8319C159.579 43.9445 159.398 44.0346 159.205 44.0932C159.007 44.1517 158.804 44.1832 158.588 44.1832C158.277 44.1832 158.002 44.1337 157.759 44.0301C157.52 43.9265 157.318 43.7869 157.151 43.6022C156.984 43.4176 156.858 43.1969 156.777 42.9447C156.692 42.688 156.651 42.4087 156.651 42.1025C156.651 41.8232 156.696 41.553 156.786 41.3008C156.876 41.0486 157.002 40.8279 157.169 40.6342C157.336 40.4451 157.534 40.2919 157.768 40.1793C158.002 40.0667 158.268 40.0127 158.565 40.0127C158.876 40.0127 159.155 40.0757 159.403 40.2064C159.651 40.337 159.858 40.5081 160.02 40.7243C160.182 40.9405 160.304 41.1837 160.376 41.4629C160.448 41.7422 160.47 42.0304 160.434 42.3232H157.525H157.529ZM159.565 41.7512C159.556 41.6116 159.525 41.4809 159.475 41.3548C159.425 41.2287 159.362 41.1161 159.277 41.0215C159.191 40.927 159.092 40.8504 158.971 40.7919C158.849 40.7333 158.718 40.7018 158.57 40.7018C158.421 40.7018 158.277 40.7288 158.151 40.7828C158.025 40.8369 157.917 40.909 157.831 41.0035C157.746 41.0981 157.669 41.2107 157.615 41.3368C157.561 41.4629 157.534 41.6025 157.525 41.7512H159.561H159.565Z" fill="#192322"></path>
<path d="M163.524 38.6118H164.479V43.2507H167.258V44.0794H163.519V38.6118H163.524Z" fill="#192322"></path>
<path d="M169.541 44.1832C169.226 44.1832 168.942 44.1292 168.694 44.0256C168.446 43.922 168.239 43.7779 168.068 43.5932C167.897 43.4086 167.766 43.1879 167.676 42.9357C167.586 42.679 167.541 42.3997 167.541 42.0935C167.541 41.7872 167.586 41.5125 167.676 41.2603C167.766 41.0035 167.897 40.7874 168.068 40.6027C168.239 40.418 168.446 40.2739 168.694 40.1703C168.942 40.0667 169.221 40.0127 169.541 40.0127C169.861 40.0127 170.14 40.0667 170.388 40.1703C170.635 40.2739 170.842 40.418 171.014 40.6027C171.185 40.7874 171.315 41.008 171.405 41.2603C171.495 41.517 171.541 41.7917 171.541 42.0935C171.541 42.3952 171.495 42.679 171.405 42.9357C171.315 43.1924 171.185 43.4086 171.014 43.5932C170.842 43.7779 170.635 43.922 170.388 44.0256C170.14 44.1292 169.856 44.1832 169.541 44.1832ZM169.541 43.4941C169.734 43.4941 169.901 43.4536 170.045 43.3725C170.189 43.2915 170.306 43.1834 170.397 43.0528C170.487 42.9222 170.554 42.769 170.599 42.6024C170.644 42.4357 170.662 42.2646 170.662 42.0935C170.662 41.9223 170.64 41.7557 170.599 41.589C170.559 41.4224 170.487 41.2693 170.397 41.1386C170.306 41.008 170.189 40.9045 170.045 40.8189C169.901 40.7333 169.734 40.6973 169.541 40.6973C169.347 40.6973 169.181 40.7378 169.036 40.8189C168.892 40.8999 168.775 41.008 168.685 41.1386C168.595 41.2693 168.527 41.4179 168.482 41.589C168.437 41.7602 168.419 41.9268 168.419 42.0935C168.419 42.2601 168.442 42.4357 168.482 42.6024C168.523 42.769 168.595 42.9177 168.685 43.0528C168.775 43.1834 168.892 43.2915 169.036 43.3725C169.181 43.4536 169.347 43.4941 169.541 43.4941Z" fill="#192322"></path>
<path d="M172.221 38.6118H173.094V39.4405H172.221V38.6118ZM172.221 40.1206H173.094V44.0794H172.221V40.1206Z" fill="#192322"></path>
<path d="M174.635 42.8051C174.662 43.0618 174.756 43.2374 174.928 43.341C175.099 43.4446 175.297 43.4941 175.531 43.4941C175.612 43.4941 175.707 43.4896 175.81 43.4761C175.914 43.4626 176.013 43.4401 176.103 43.4041C176.193 43.368 176.27 43.314 176.328 43.2464C176.387 43.1789 176.414 43.0888 176.409 42.9762C176.405 42.8636 176.364 42.7735 176.288 42.7015C176.211 42.6294 176.112 42.5709 175.99 42.5303C175.869 42.4853 175.734 42.4493 175.581 42.4177C175.428 42.3862 175.27 42.3547 175.112 42.3187C174.95 42.2826 174.792 42.2421 174.644 42.188C174.495 42.1385 174.36 42.0664 174.238 41.9809C174.117 41.8953 174.022 41.7827 173.95 41.6476C173.878 41.5125 173.842 41.3458 173.842 41.1477C173.842 40.9315 173.896 40.7513 174 40.6072C174.103 40.4631 174.238 40.346 174.396 40.2559C174.558 40.1658 174.734 40.1028 174.932 40.0667C175.13 40.0307 175.315 40.0127 175.495 40.0127C175.698 40.0127 175.896 40.0352 176.081 40.0757C176.265 40.1208 176.436 40.1883 176.585 40.2874C176.734 40.3865 176.86 40.5126 176.959 40.6658C177.058 40.8234 177.121 41.008 177.148 41.2287H176.238C176.198 41.0216 176.103 40.8774 175.95 40.8099C175.801 40.7378 175.626 40.7018 175.432 40.7018C175.369 40.7018 175.297 40.7063 175.216 40.7153C175.13 40.7243 175.054 40.7468 174.977 40.7738C174.901 40.8009 174.842 40.8414 174.788 40.8954C174.734 40.9495 174.711 41.0216 174.711 41.1071C174.711 41.2152 174.747 41.3008 174.824 41.3683C174.901 41.4359 174.995 41.4899 175.117 41.535C175.238 41.58 175.373 41.6161 175.527 41.6476C175.68 41.6791 175.837 41.7106 175.999 41.7467C176.157 41.7827 176.315 41.8277 176.468 41.8773C176.621 41.9268 176.756 41.9989 176.878 42.0845C176.999 42.17 177.094 42.2826 177.17 42.4132C177.243 42.5438 177.283 42.7105 177.283 42.9041C177.283 43.1383 177.229 43.3365 177.121 43.5032C177.013 43.6653 176.873 43.8004 176.702 43.8995C176.531 44.0031 176.342 44.0751 176.13 44.1202C175.923 44.1652 175.716 44.1877 175.509 44.1877C175.261 44.1877 175.027 44.1607 174.815 44.1022C174.603 44.0481 174.419 43.9625 174.266 43.8454C174.112 43.7283 173.986 43.5887 173.896 43.4176C173.806 43.2464 173.761 43.0438 173.757 42.8096H174.63L174.635 42.8051Z" fill="#192322"></path>
<path d="M177.905 38.6118H178.778V39.4405H177.905V38.6118ZM177.905 40.1206H178.778V44.0794H177.905V40.1206Z" fill="#192322"></path>
<path d="M179.657 40.1208H180.476V40.8864H180.49C180.517 40.7783 180.566 40.6748 180.638 40.5712C180.715 40.4676 180.801 40.3775 180.909 40.2919C181.012 40.2064 181.129 40.1388 181.255 40.0893C181.382 40.0397 181.512 40.0127 181.647 40.0127C181.751 40.0127 181.818 40.0127 181.859 40.0217C181.895 40.0262 181.936 40.0307 181.976 40.0352V40.8774C181.913 40.8684 181.854 40.8594 181.787 40.8504C181.724 40.8414 181.661 40.8369 181.598 40.8369C181.449 40.8369 181.309 40.8684 181.179 40.927C181.048 40.9855 180.936 41.0711 180.837 41.1882C180.737 41.3008 180.661 41.4449 180.607 41.6116C180.553 41.7782 180.521 41.9719 180.521 42.1925V44.0751H179.648V40.1163L179.657 40.1208Z" fill="#192322"></path>
<path d="M182.94 42.8051C182.967 43.0618 183.061 43.2374 183.233 43.341C183.404 43.4446 183.602 43.4941 183.836 43.4941C183.917 43.4941 184.012 43.4896 184.115 43.4761C184.219 43.4626 184.318 43.4401 184.408 43.4041C184.498 43.368 184.575 43.314 184.633 43.2464C184.692 43.1789 184.719 43.0888 184.714 42.9762C184.71 42.8636 184.669 42.7735 184.593 42.7015C184.516 42.6294 184.417 42.5709 184.295 42.5303C184.174 42.4853 184.039 42.4493 183.886 42.4177C183.732 42.3862 183.575 42.3547 183.417 42.3187C183.255 42.2826 183.097 42.2421 182.949 42.188C182.8 42.1385 182.665 42.0664 182.543 41.9809C182.422 41.8953 182.327 41.7827 182.255 41.6476C182.183 41.5125 182.147 41.3458 182.147 41.1477C182.147 40.9315 182.201 40.7513 182.305 40.6072C182.408 40.4631 182.543 40.346 182.701 40.2559C182.863 40.1658 183.039 40.1028 183.237 40.0667C183.435 40.0307 183.62 40.0127 183.8 40.0127C184.003 40.0127 184.201 40.0352 184.385 40.0757C184.57 40.1208 184.741 40.1883 184.89 40.2874C185.039 40.3865 185.165 40.5126 185.264 40.6658C185.363 40.8234 185.426 41.008 185.453 41.2287H184.543C184.503 41.0216 184.408 40.8774 184.255 40.8099C184.106 40.7378 183.931 40.7018 183.737 40.7018C183.674 40.7018 183.602 40.7063 183.521 40.7153C183.435 40.7243 183.359 40.7468 183.282 40.7738C183.206 40.8009 183.147 40.8414 183.093 40.8954C183.039 40.9495 183.016 41.0216 183.016 41.1071C183.016 41.2152 183.052 41.3008 183.129 41.3683C183.206 41.4359 183.3 41.4899 183.422 41.535C183.543 41.58 183.678 41.6161 183.832 41.6476C183.985 41.6791 184.142 41.7106 184.304 41.7467C184.462 41.7827 184.62 41.8277 184.773 41.8773C184.926 41.9268 185.061 41.9989 185.183 42.0845C185.304 42.17 185.399 42.2826 185.475 42.4132C185.547 42.5438 185.588 42.7105 185.588 42.9041C185.588 43.1383 185.534 43.3365 185.426 43.5032C185.318 43.6653 185.178 43.8004 185.007 43.8995C184.836 44.0031 184.647 44.0751 184.435 44.1202C184.228 44.1652 184.021 44.1877 183.814 44.1877C183.566 44.1877 183.332 44.1607 183.12 44.1022C182.908 44.0481 182.724 43.9625 182.57 43.8454C182.417 43.7283 182.291 43.5887 182.201 43.4176C182.111 43.2464 182.066 43.0438 182.062 42.8096H182.935L182.94 42.8051Z" fill="#192322"></path>
<path d="M117.765 15.5839C119.676 15.5839 121.224 14.0352 121.224 12.1249C121.224 10.2147 119.676 8.66602 117.765 8.66602C115.855 8.66602 114.306 10.2147 114.306 12.1249C114.306 14.0352 115.855 15.5839 117.765 15.5839Z" fill="#E22126"></path>
<path d="M44.4249 0.757324H0.972107V44.2101H44.4249V0.757324Z" fill="#E22126"></path>
<path d="M36.6649 17.8266H27.3555V8.5127H18.0416V17.8266H8.72772V27.136H18.0416V36.4499H27.3555V27.136H36.6649V17.8266Z" fill="white"></path>
<path d="M22.6985 22.4837C17.6363 22.4837 12.9568 20.8488 9.15106 18.0835C12.02 22.5288 17.0147 25.4788 22.6985 25.4788C28.3824 25.4788 33.3771 22.5333 36.246 18.0835C32.4403 20.8488 27.7608 22.4837 22.6985 22.4837Z" fill="#E22126"></path>
<path d="M37.0972 17.2504C38.1421 18.2953 38.7681 19.5924 38.9843 20.948C39.3085 19.4393 38.8897 17.8044 37.7142 16.6334C36.5387 15.4624 34.9083 15.039 33.3995 15.3633C34.7507 15.5795 36.0523 16.2055 37.0972 17.2504Z" fill="white"></path>
<path d="M8.29521 17.2504C7.25032 18.2953 6.62429 19.5924 6.40811 20.948C6.08384 19.4393 6.50269 17.8044 7.67819 16.6334C8.85368 15.4624 10.4841 15.039 11.9928 15.3633C10.6417 15.5795 9.3401 16.2055 8.29521 17.2504Z" fill="white"></path>
</g>
</g>
<defs>
<clipPath id="clip0_14002_8627">
<rect width="184.656" height="44.1374" fill="white" transform="translate(0.972168 0.221191)"></rect>
</clipPath>
</defs>
</svg>
