<svg width="223" height="60" viewBox="0 0 223 60" fill="none" xmlns="http://www.w3.org/2000/svg">
<g clip-path="url('#clip0_14002_8711')">
<mask id="mask0_14002_8711" style="mask-type: luminance" maskUnits="userSpaceOnUse" x="0" y="0" width="223" height="33">
<path d="M222.972 0.790039H0.483582V32.1467H222.972V0.790039Z" fill="white"></path>
</mask>
<g mask="url('#mask0_14002_8711')">
<path d="M85.4265 1.2207H63.7816V5.33566H85.4265V1.2207Z" fill="#FF4773"></path>
<path d="M85.4265 19.0361H63.7816V23.1511H85.4265V19.0361Z" fill="#85052E"></path>
<path d="M85.4265 10.1206H63.7816V14.2356H85.4265V10.1206Z" fill="#DB001C"></path>
<path d="M85.4265 14.2354H63.7816V19.0361H85.4265V14.2354Z" fill="#B50024"></path>
<path d="M85.4265 5.33545H63.7816V10.1362H85.4265V5.33545Z" fill="#FF0A00"></path>
<path d="M81.3583 10.1206H76.6225V5.31982H72.57V10.1206H67.8342V14.2356H72.57V19.0364H76.6225V14.2356H81.3583V10.1206Z" fill="white"></path>
<path d="M88.2076 27.6491L99.332 14.2356H88.9706V10.1206H105.578V13.2467L93.9129 27.4259H106.007V31.5407H88.2076V27.6491Z" fill="#DB001C"></path>
<path d="M106.944 20.8384C106.944 14.028 111.219 9.53027 117.894 9.53027C125.332 9.53027 129.177 15.6549 127.111 22.6726H112.141C112.697 25.9742 114.636 27.8563 117.846 27.8563C120.039 27.8563 121.486 26.995 122.375 25.6233H127.795C126.364 29.3873 123.059 32.1307 117.783 32.1307C111.188 32.1307 106.96 27.633 106.96 20.8225L106.944 20.8384ZM122.535 19.0362C122.964 15.7825 121.231 13.6452 117.799 13.6452C114.366 13.6452 112.602 15.5751 112.141 19.0362H122.535Z" fill="#DB001C"></path>
<path d="M139.444 13.8529C137.028 13.8529 135.55 16.7238 135.55 21.0461V31.5408H130.735V10.1207H135.55V13.7572C136.694 11.1096 138.712 9.51465 141.335 9.51465C146.992 9.51465 147.755 15.4319 146.659 19.0205H141.589C142.527 16.3729 141.97 13.8369 139.428 13.8369L139.444 13.8529Z" fill="#DB001C"></path>
<path d="M149.583 1.55566H154.398V31.5406H149.583V1.55566Z" fill="#DB001C"></path>
<path d="M172.165 27.8242C170.608 30.5676 168.018 32.1466 164.553 32.1466C160.071 32.1466 157.29 29.228 157.29 25.5117C157.29 21.1893 161.009 18.446 166.969 18.446C168.622 18.446 170.306 18.6534 171.784 19.0043C171.704 15.9579 170.513 13.7728 167.255 13.7728C164.712 13.7728 163.616 15.0647 163.361 16.3885H158.419C158.466 12.4969 161.804 9.53027 167.302 9.53027C173.468 9.53027 176.599 13.4219 176.599 19.387V31.5564H172.165V27.8242ZM165.522 28.2389C168.733 28.2389 171.307 26.1017 172.038 22.7205C170.64 22.242 168.907 21.9868 167.35 21.9868C163.886 21.9868 162.185 23.4063 162.185 25.368C162.185 27.0746 163.457 28.2389 165.522 28.2389Z" fill="#DB001C"></path>
<path d="M180.191 10.1207H185.006V14.0602C186.405 11.2372 188.979 9.51465 192.189 9.51465C198.991 9.51465 198.991 16.3251 198.991 19.5309V31.5249H194.176V19.6585C194.176 17.2182 194.176 13.7413 190.457 13.7413C187.247 13.7413 185.006 16.66 185.006 21.0302V31.5249H180.191V10.1207Z" fill="#DB001C"></path>
<path d="M201.407 20.8386C201.407 14.076 205.332 9.53038 210.958 9.53038C214.041 9.53038 216.536 10.902 218.141 13.2945V1.55566H222.956V31.5406H218.141V28.3668C216.536 30.7591 214.041 32.1308 210.958 32.1308C205.38 32.1308 201.407 27.6331 201.407 20.8226V20.8386ZM218.363 20.8386C218.363 16.596 215.996 13.8208 212.452 13.8208C208.908 13.8208 206.492 16.612 206.492 20.8386C206.492 25.0652 208.86 27.8564 212.452 27.8564C216.043 27.8564 218.363 25.0652 218.363 20.8386Z" fill="#DB001C"></path>
<path d="M0.499523 23.8688H5.15589C4.85394 26.5164 6.80865 28.1912 10.0983 28.1912C12.6728 28.1912 14.4051 27.1703 14.4051 25.6233C14.4051 21.3488 0.801471 24.4271 0.801471 16.4204C0.801471 12.146 4.72682 9.53027 9.84405 9.53027C15.5016 9.53027 19.6017 12.7361 18.7277 17.5848H14.0395C14.6276 15.1445 12.7364 13.4698 9.81225 13.4698C7.36487 13.4698 5.7598 14.5863 5.7598 16.1174C5.7598 20.4397 19.4111 17.1382 19.4111 25.2884C19.4111 29.6106 15.5652 32.1466 10.0665 32.1466C4.10701 32.1466 0.181683 29.0684 0.515415 23.8848L0.499523 23.8688Z" fill="#DB001C"></path>
<path d="M19.6494 10.1206H24.7667L29.2006 26.5325L33.6344 10.1206H38.7516L43.0583 26.3093L47.6193 10.1206H52.6572L46.0619 31.5407H40.4362L36.1296 16.5004L31.9023 31.5407H26.2445L19.6494 10.1206Z" fill="#DB001C"></path>
<path d="M54.2781 3.91613C54.2781 2.16169 55.6289 0.790039 57.3613 0.790039C59.0934 0.790039 60.4443 2.16169 60.4443 3.91613C60.4443 5.67056 59.0934 7.04223 57.3613 7.04223C55.6289 7.04223 54.2781 5.67056 54.2781 3.91613ZM54.9139 10.1205H59.729V31.5405H54.9139V10.1205Z" fill="#DB001C"></path>
</g>
<path d="M70.951 59.7448C69.4527 59.5539 68.3846 58.5734 67.4655 57.5082C67.4015 57.435 67.4701 57.3148 67.229 57.3785V59.4361H64.0223V39.6763H67.229V47.395C68.2853 46.134 69.5046 45.1158 71.2228 44.9368C80.6538 43.9563 80.6467 58.8562 73.2266 59.7448C72.7327 59.8038 71.4426 59.806 70.951 59.7448ZM73.912 48.7689C72.8958 47.7556 71.3102 47.4775 69.9609 47.904C65.686 49.2614 66.4586 57.6683 71.8018 56.9403C75.4834 56.4381 76.1969 51.0481 73.912 48.7689Z" fill="#85052E"></path>
<path d="M86.0544 59.7404C82.6399 59.334 80.365 56.405 80.1398 53.1282C79.7774 47.9041 83.1635 44.5007 88.4782 44.9823C92.9496 45.3884 94.978 49.5554 93.7293 53.5838H83.6705C83.9501 56.9194 88.0186 58.1197 90.3099 55.7871C90.3951 55.7002 90.3951 55.5335 90.4093 55.5335H94.1414C93.5634 57.0508 92.4188 58.3709 90.9261 59.071C90.4022 59.3151 89.3077 59.6794 88.7507 59.7382C88.1347 59.8038 86.6633 59.8109 86.0544 59.7382V59.7404ZM90.6157 51.228C91.2434 46.1777 83.68 46.6428 83.6683 51.228H90.6157Z" fill="#85052E"></path>
<path d="M30.1485 59.7404C26.7339 59.334 24.4592 56.405 24.2341 53.1282C23.8716 47.9041 27.2576 44.5007 32.5726 44.9823C37.0436 45.3884 39.072 49.5554 37.8233 53.5838H27.7648C28.0444 56.9194 32.1129 58.1197 34.4042 55.7871C34.4894 55.7002 34.4894 55.5335 34.5036 55.5335H38.2357C37.6574 57.0508 36.5129 58.3709 35.0202 59.071C34.4965 59.3151 33.4017 59.6794 32.845 59.7382C32.2288 59.8038 30.7574 59.8109 30.1485 59.7382V59.7404ZM34.7097 51.228C35.3377 46.1777 27.7741 46.6428 27.7623 51.228H34.7097Z" fill="#85052E"></path>
<path d="M6.46449 39.6763L11.5178 55.3504L16.4178 39.6763H22.0415V59.4733H18.6357V42.8735L13.0191 59.4804L9.54737 59.4119L4.09341 43.0789V59.4733H0.690002V39.6763H6.46449Z" fill="#85052E"></path>
<path d="M43.4992 47.6783C43.8364 47.3322 44.006 46.8746 44.3265 46.4905C46.495 43.8992 51.1263 44.3971 52.2128 47.7826C53.6881 44.212 59.3449 43.5934 60.8014 47.5457C60.9357 47.906 61.2376 49.0488 61.2376 49.3854V59.4808H58.0392V50.2153C58.0392 49.8951 57.728 49.0417 57.5442 48.7452C56.6391 47.2991 54.7418 47.4744 53.6646 48.6172C53.2192 49.0892 52.4721 50.6303 52.4721 51.2489V59.3244L52.3165 59.4808H49.3256L49.17 59.3244V49.9022C49.17 48.9041 48.1659 47.7804 47.1595 47.6761C45.3306 47.4864 44.0861 49.1318 43.735 50.7605C43.1503 53.4657 43.6855 56.7022 43.4968 59.4783H40.2986V45.2956H43.4968V47.6761L43.4992 47.6783Z" fill="#85052E"></path>
<path d="M103.466 51.2528C104.158 49.5432 103.418 46.9788 101.159 47.9892C100.287 48.3799 99.422 50.2192 99.422 51.0998V59.3253L99.2657 59.4807H96.2577L96.1011 59.3253V45.3917H99.4195V47.4474L100.505 46.004C102.617 44.1977 106.014 44.6759 106.884 47.5064C107.213 48.5777 107.28 50.2591 106.734 51.2528H103.468H103.466Z" fill="#85052E"></path>
</g>
<defs>
<clipPath id="clip0_14002_8711">
<rect width="222.489" height="59" fill="white" transform="translate(0.483582 0.790039)"></rect>
</clipPath>
</defs>
</svg>
