<svg width="26" height="25" viewBox="0 0 26 25" fill="none" xmlns="http://www.w3.org/2000/svg">
<path d="M25.3125 12.54C25.3125 13.5947 24.4336 14.4736 23.4375 14.4736L15 14.4736L15 22.9111C15 23.9072 14.1211 24.7275 13.125 24.7275C12.0703 24.7275 11.25 23.9072 11.25 22.9111L11.25 14.4736L2.8125 14.4736C1.75781 14.4736 0.937497 13.5947 0.937497 12.54C0.937498 11.5439 1.75781 10.7236 2.8125 10.7236L11.25 10.7236L11.25 2.28613C11.25 1.23145 12.0703 0.352541 13.125 0.352541C14.1211 0.352542 15 1.23145 15 2.28614L15 10.7236L23.4375 10.7236C24.4336 10.665 25.3125 11.5439 25.3125 12.54Z" fill="#EE6D17"></path>
</svg>
