<svg width="75" height="72" viewBox="0 0 75 72" fill="none" xmlns="http://www.w3.org/2000/svg">
<path d="M72.45 38.4741L56.15 42.4741L66.95 55.3741C68.45 57.1741 66.55 59.6741 64.45 58.7741L48.85 52.4741L50.05 69.2741C50.25 71.5741 47.25 72.5741 45.95 70.5741L37.05 56.2741L28.15 70.5741C26.95 72.4741 23.95 71.5741 24.05 69.2741L25.25 52.4741L9.65 58.7741C7.55 59.6741 5.65 57.0741 7.15 55.3741L17.95 42.4741L1.65 38.4741C-0.55 37.8741 -0.55 34.7741 1.65 34.1741L17.95 30.1741L7.15 17.2741C5.65 15.4741 7.55 12.9741 9.65 13.8741L25.25 20.1741L24.05 3.37406C23.85 1.07406 26.85 0.074061 28.15 2.07406L37.05 16.3741L45.95 2.07406C47.15 0.174061 50.15 1.07406 50.05 3.37406L48.85 20.1741L64.45 13.8741C66.55 12.9741 68.45 15.5741 66.95 17.2741L56.15 30.1741L72.45 34.1741C74.65 34.7741 74.65 37.8741 72.45 38.4741Z" fill="#192322"/>
</svg>
