<svg width="257" height="98" viewBox="0 0 257 98" fill="none" xmlns="http://www.w3.org/2000/svg">
<path d="M9.47841 8.10014H31.1277V16.5089H19.3304V22.8468H30.5002V31.2555H19.3304V37.7817H31.1277V46.1904H9.47841V8.10014ZM76.1085 38.0327V46.1904H71.2138C65.4407 46.1904 61.9266 44.3079 59.7303 41.2958C58.9145 40.229 56.9692 37.3424 54.8356 34.1421C49.1252 43.6804 44.2306 46.4414 34.8806 46.1904V38.0327C41.5323 37.97 45.7994 34.5186 50.192 27.1139L47.1799 22.5958C42.4735 15.5676 37.1397 16.3206 34.8806 16.2579V8.10014H38.3319C42.5991 8.10014 48.1212 8.47665 52.1373 14.4381C52.3883 14.8773 53.5806 16.5716 55.0866 18.8307L55.3376 18.4542C59.542 12.43 61.4873 8.10014 68.641 8.10014H74.3514V16.2579H69.9588C66.3192 16.2579 62.4913 21.1525 59.7303 25.6706C61.9893 28.9965 64.0601 32.0085 64.8132 33.0753C69.0803 38.6602 70.7746 38.0327 76.1085 38.0327ZM79.8902 8.10014H95.4527C102.983 8.10014 108.568 12.932 108.568 20.4622C108.568 29.373 104.489 33.4518 91.2483 33.4518H89.7423V46.1904H79.8902V8.10014ZM89.7423 26.2981H91.4993C95.2644 26.2981 98.5902 26.1099 98.5902 21.0897C98.5902 17.7012 95.6409 15.8814 91.6876 15.8814H89.7423V26.2981ZM111.695 46.1904V8.10014H121.547V37.7817H133.344V46.1904H111.695ZM154.13 46.8179C142.082 46.8179 133.359 38.3465 133.359 27.2394C133.359 16.6971 141.266 7.47262 154.13 7.47262C167.245 7.47262 174.963 17.0109 174.963 27.2394C174.963 38.0327 166.492 46.8179 154.13 46.8179ZM143.399 27.2394C143.399 32.9498 147.917 37.4052 154.13 37.4052C160.531 37.4052 164.923 32.7616 164.923 27.2394C164.923 21.9055 161.033 16.8854 154.13 16.8854C147.541 16.8854 143.399 21.7173 143.399 27.2394ZM178.736 8.10014H194.111C201.453 8.10014 206.849 12.6183 206.849 19.6465C206.849 25.7334 204.716 29.373 198.566 30.9418L210.175 46.1904H198.001L188.588 31.7575V46.1904H178.736V8.10014ZM188.588 24.6038H190.283C193.922 24.6038 197.185 24.4156 197.185 20.2112C197.185 17.5757 194.299 15.8814 190.471 15.8814H188.588V24.6038ZM235.118 8.10014L249.551 46.1904H239.699L236.687 38.2837H221.814L218.802 46.1904H208.95L223.383 8.10014H235.118ZM224.764 30.5025H233.737L229.282 18.6424L224.764 30.5025Z" fill="#FFFDFB"/>
<path d="M21.7777 82.0327C28.3667 82.1582 30.2492 79.1461 30.2492 75.632C27.9902 76.6361 25.4173 77.0753 22.7818 77.0753C21.0247 77.0753 19.2049 77.0126 17.6361 76.6988V81.97L21.7777 82.0327ZM8.22337 90.1904V52.1001H19.4559C25.9194 52.1001 37.3402 52.6649 37.3402 63.772C37.3402 65.529 37.0892 67.035 36.7126 68.4156C38.6579 70.4236 39.662 72.871 39.662 75.4438C39.662 84.982 35.8341 90.1904 20.8365 90.1904H8.22337ZM17.6361 63.8347C19.0167 63.521 20.7737 63.3327 22.9073 63.3955C24.9153 63.4582 26.7351 63.6465 28.4294 64.023C27.9902 61.3874 25.9821 59.3793 17.6361 59.5048V63.8347ZM22.7818 71.0512C24.2878 71.0512 25.3546 70.8002 26.2331 70.3609C25.1663 69.9216 24.0368 69.6706 22.8445 69.6706C18.8284 69.6706 18.2636 71.0512 22.7818 71.0512ZM62.9438 90.8179C50.8955 90.8179 42.173 82.3465 42.173 71.2394C42.173 60.6971 50.0797 51.4726 62.9438 51.4726C76.0589 51.4726 83.7774 61.0109 83.7774 71.2394C83.7774 82.0327 75.3059 90.8179 62.9438 90.8179ZM52.2133 71.2394C52.2133 76.9498 56.7314 81.4052 62.9438 81.4052C69.3445 81.4052 73.7371 76.7616 73.7371 71.2394C73.7371 65.9055 69.8465 60.8854 62.9438 60.8854C56.3549 60.8854 52.2133 65.7173 52.2133 71.2394ZM127.523 82.0327V90.1904H122.629C116.855 90.1904 113.341 88.3079 111.145 85.2958C110.329 84.229 108.384 81.3424 106.25 78.1421C100.54 87.6804 95.6453 90.4414 86.2953 90.1904V82.0327C92.947 81.97 97.2141 78.5186 101.607 71.1139L98.5947 66.5958C93.8883 59.5676 88.5544 60.3206 86.2953 60.2579V52.1001H89.7467C94.0138 52.1001 99.5359 52.4767 103.552 58.4381C103.803 58.8773 104.995 60.5716 106.501 62.8307L106.752 62.4542C110.957 56.43 112.902 52.1001 120.056 52.1001H125.766V60.2579H121.374C117.734 60.2579 113.906 65.1525 111.145 69.6706C113.404 72.9965 115.475 76.0085 116.228 77.0753C120.495 82.6602 122.189 82.0327 127.523 82.0327Z" fill="#EE6D17"/>
</svg>
