<svg width="269" height="57" viewBox="0 0 269 57" fill="none" xmlns="http://www.w3.org/2000/svg">
<path d="M113.958 37.5862C113.958 37.5862 111.661 37.5862 109.904 37.5862C110.625 35.1542 112.336 29.4343 112.336 29.4343C112.336 29.4343 106.571 29.4343 104.184 29.4343C104.725 27.6328 105.085 26.4167 105.445 25.2007C107.427 25.2007 113.597 25.2007 113.597 25.2007C113.597 25.2007 115.444 18.9404 116.029 17.0038C117.245 17.0038 118.326 17.0038 120.083 17.0038C119.362 19.4358 117.651 25.2007 117.651 25.2007H121.749C122.47 22.7687 125.352 13.0854 125.352 13.0854H122.695H113.057C113.057 13.0854 111.21 19.3458 110.625 21.2824C108.643 21.2824 102.428 21.2824 102.428 21.2824L98.8249 33.3977C98.8249 33.3977 104.59 33.3977 106.977 33.3977C106.256 35.7847 104.545 41.5946 104.545 41.5946H116.84C116.84 41.5946 117.426 39.703 118.011 37.6763H113.958V37.5862Z" fill="#E32F2B"/>
<path d="M119.362 41.5495C130.442 41.5495 137.603 33.2625 137.603 23.4442C137.603 12.545 128.1 4.21289 115.759 4.21289C101.707 4.21289 90.763 14.977 90.763 28.8037C90.763 42.7656 101.662 53.2595 116.165 53.2595C121.074 53.2595 126.388 51.6831 130.262 48.9808C133.729 46.6388 135.306 44.5221 137.468 39.5228H133.054C128.73 45.603 123.461 48.3053 115.939 48.3053C104.68 48.3053 95.8523 39.793 95.8523 28.8488C95.8523 18.0396 104.77 9.03197 115.534 9.03197C119.542 9.03197 124.001 10.5633 127.334 13.0404C130.757 15.6526 132.468 19.1205 132.468 23.5343C132.468 29.7495 129.451 37.1808 120.488 37.5862L119.362 41.5495Z" fill="#E32F2B"/>
<path d="M162.103 35.6493H162.013C158.455 40.1532 154.942 41.9997 150.574 41.9997C146.926 41.9997 142.557 39.6577 144.899 32.0463L150.664 13.1753H155.753L150.709 29.7493C149.493 33.8028 148.772 37.4959 153.771 37.4959C160.122 37.4959 163.229 31.3707 164.445 27.3173L168.769 13.1753H173.768L165.121 41.3692H160.302L162.103 35.6493Z" fill="#333333"/>
<path d="M194.531 20.4267C193.27 18.4 191.153 17.5893 188.361 17.5893C185.388 17.5893 182.821 18.6252 182.1 21.0573C180.119 27.5427 194.846 22.6786 191.558 33.3527C189.847 38.8924 183.992 42 179.533 42C175.885 42 173.633 40.874 172.327 39.4779L173.993 34.0733C175.21 36.3252 177.642 37.4511 180.524 37.4511C183.001 37.4511 186.064 36.5053 186.874 33.8481C188.946 27.0473 173.588 32.2267 176.876 21.5076C178.677 15.6076 184.172 12.5 188.991 12.5C192.369 12.5 194.306 13.1305 196.242 14.7519L194.531 20.4267Z" fill="#333333"/>
<path d="M212.952 41.3693H207.862L209.258 36.7755H209.168C206.781 39.793 203.133 41.9999 199.71 41.9999C195.207 41.9999 193.225 39.2526 194.621 34.7037C196.828 27.4976 203.043 27.0472 208.943 25.2457C211.42 24.5251 213.402 23.9846 214.213 21.3724C215.113 18.49 212.726 17.6342 210.429 17.6342C206.466 17.6342 203.358 19.3457 199.981 22.2281L201.647 16.8235C205.16 14.3464 208.313 12.5449 212.907 12.5449C218.671 12.5449 220.968 15.3373 219.257 20.922L212.952 41.3693ZM212.186 27.2724H212.096C207.322 29.4793 201.287 29.4793 199.755 34.4785C199.035 36.7755 200.701 37.9915 202.548 37.9915C206.466 37.9915 210.114 34.0281 211.195 30.38L212.186 27.2724Z" fill="#333333"/>
<path d="M228.67 13.1305H233.489L231.823 18.6252H231.913C234.57 14.9321 238.443 12.5 242.407 12.5C246.64 12.5 248.802 15.1573 248.216 19.4809H248.307C250.784 15.1573 254.387 12.5 259.026 12.5C266.412 12.5 265.106 19.1656 263.89 23.129L258.305 41.3244H253.216L257.765 26.4618C259.071 22.2282 260.242 17.5443 255.332 17.5443C250.649 17.5443 247.406 22.7687 246.01 27.2725L241.731 41.3244H236.642L241.191 26.4618C242.497 22.2282 243.668 17.5443 238.758 17.5443C234.074 17.5443 230.832 22.7687 229.436 27.2725L225.112 41.3695H220.023L228.67 13.1305Z" fill="#333333"/>
<path d="M27.7547 20.4267C26.5386 18.4 24.3768 17.5893 21.5844 17.5893C18.6119 17.5893 16.0447 18.6252 15.3241 21.0573C13.3424 27.5427 28.0699 22.6786 24.7821 33.3527C23.1157 38.8924 17.2157 42 12.7569 42C9.10886 42 6.85695 40.874 5.55084 39.4779L7.21725 34.0733C8.43328 36.3252 10.8203 37.4511 13.7478 37.4511C16.2249 37.4511 19.2875 36.5053 20.0982 33.8481C22.1699 27.0473 6.81191 32.2267 10.0997 21.5076C11.9012 15.6076 17.3959 12.5 22.215 12.5C25.5928 12.5 27.5295 13.1305 29.4661 14.7519L27.7547 20.4267Z" fill="#333333"/>
<path d="M29.5562 40.6038C30.9975 42.8557 33.7448 44.1168 37.8883 44.1168C43.9234 44.1168 46.3555 41.1443 47.5715 37.226L48.7425 33.4878H48.6524C46.2654 37.271 41.4914 38.9374 38.2036 38.9374C30.5921 38.9374 29.331 33.0824 31.4478 26.2366C33.6097 19.1206 38.8791 12.5 46.8509 12.5C50.5891 12.5 53.2914 13.7611 53.9219 17.1389H54.012L55.228 13.1756H60.0471L52.7059 37.226C50.9494 43.0359 47.031 48.1702 36.6272 48.1702C32.9791 48.1702 29.6013 46.8641 28.07 45.6031L29.5562 40.6038ZM46.6257 17.3191C41.3562 17.3191 37.9333 20.6969 36.2219 26.3718C34.6906 31.326 35.9066 34.7038 40.9959 34.7038C45.9952 34.7038 49.5982 30.6954 51.0394 25.9664C52.4356 21.3275 51.6249 17.3191 46.6257 17.3191Z" fill="#333333"/>
<path d="M63.605 13.1304H68.8745V36.28H68.9646L83.1066 13.1304H88.376L70.8562 41.3243H63.8753L63.605 13.1304Z" fill="#333333"/>
</svg>
