<svg width="71" height="72" viewBox="0 0 71 72" fill="none" xmlns="http://www.w3.org/2000/svg">
<path d="M70.8 35.4C70.8 31.4 67.7 28.1 63.8 27.8C67 25.6 68.1 21.2 66.1 17.7C64.1 14.2 59.8 12.9 56.2 14.6C57.9 11.1 56.6 6.7 53.1 4.7C49.6 2.7 45.3 3.7 43 7C42.7 3.1 39.4 0 35.4 0C31.4 0 28.1 3.1 27.8 7C25.6 3.8 21.2 2.7 17.7 4.7C14.2 6.7 12.9 11 14.6 14.6C11.1 12.9 6.7 14.2 4.7 17.7C2.7 21.2 3.7 25.5 7 27.8C3.1 28.1 0 31.4 0 35.4C0 39.4 3.1 42.7 7 43C3.8 45.2 2.7 49.6 4.7 53.1C6.7 56.6 11 57.9 14.6 56.2C12.9 59.7 14.2 64.1 17.7 66.1C21.2 68.1 25.5 67.1 27.8 63.8C28.1 67.7 31.4 70.8 35.4 70.8C39.4 70.8 42.7 67.7 43 63.8C45.2 67 49.6 68.1 53.1 66.1C56.6 64.1 57.9 59.8 56.2 56.2C59.7 57.9 64.1 56.6 66.1 53.1C68.1 49.6 67.1 45.3 63.8 43C67.7 42.7 70.8 39.4 70.8 35.4Z" fill="#192322"/>
</svg>
