<svg width="71" height="71" viewBox="0 0 71 71" fill="none" xmlns="http://www.w3.org/2000/svg">
<path d="M68.275 38.175L59.975 39.275L67.375 42.775C70.375 44.175 68.875 48.775 65.675 48.175L57.575 46.675L63.575 52.375C65.975 54.675 63.175 58.575 60.275 56.975L52.975 52.975L56.975 60.275C58.575 63.175 54.675 65.975 52.375 63.575L46.675 57.575L48.175 65.675C48.775 68.975 44.275 70.475 42.775 67.375L39.275 59.975L38.175 68.275C37.775 71.575 32.975 71.575 32.575 68.275L31.475 59.975L27.975 67.375C26.575 70.375 21.975 68.875 22.575 65.675L24.075 57.575L18.375 63.575C16.075 65.975 12.175 63.175 13.775 60.275L17.775 52.975L10.475 56.975C7.575 58.575 4.77501 54.675 7.17501 52.375L13.175 46.675L5.07504 48.175C1.77504 48.775 0.275024 44.275 3.37502 42.775L10.775 39.275L2.475 38.175C-0.825 37.775 -0.825 32.975 2.475 32.575L10.775 31.475L3.37502 27.975C0.375024 26.575 1.87504 21.975 5.07504 22.575L13.175 24.075L7.17501 18.375C4.77501 16.075 7.575 12.175 10.475 13.775L17.775 17.775L13.775 10.475C12.175 7.575 16.075 4.775 18.375 7.175L24.075 13.175L22.575 5.075C21.975 1.775 26.475 0.274994 27.975 3.37499L31.475 10.775L32.575 2.475C32.975 -0.825 37.775 -0.825 38.175 2.475L39.275 10.775L42.775 3.37499C44.175 0.374994 48.775 1.875 48.175 5.075L46.675 13.175L52.375 7.175C54.675 4.775 58.575 7.575 56.975 10.475L52.975 17.775L60.275 13.775C63.175 12.175 65.975 16.075 63.575 18.375L57.575 24.075L65.675 22.575C68.975 21.975 70.475 26.475 67.375 27.975L59.975 31.475L68.275 32.575C71.575 32.975 71.575 37.775 68.275 38.175Z" fill="#192322"/>
</svg>
