<svg width="71" height="71" viewBox="0 0 71 71" fill="none" xmlns="http://www.w3.org/2000/svg">
<path d="M67.65 38.75L59.45 41.65L65.15 48.25C67.55 51.05 65.15 55.25 61.55 54.55L52.95 52.95L54.55 61.55C55.25 65.15 51.05 67.55 48.25 65.15L41.65 59.45L38.75 67.65C37.55 71.05 32.65 71.05 31.45 67.65L28.55 59.45L21.95 65.15C19.15 67.55 14.95 65.15 15.65 61.55L17.25 52.95L8.64998 54.55C5.04998 55.25 2.65 51.05 5.05 48.25L10.75 41.65L2.55 38.75C-0.85 37.55 -0.85 32.65 2.55 31.45L10.75 28.55L5.05 21.95C2.65 19.15 5.04998 14.95 8.64998 15.65L17.25 17.25L15.65 8.65001C14.95 5.05001 19.15 2.65 21.95 5.05L28.55 10.75L31.45 2.55C32.65 -0.85 37.55 -0.85 38.75 2.55L41.65 10.75L48.25 5.05C51.05 2.65 55.25 5.05001 54.55 8.65001L52.95 17.25L61.55 15.65C65.15 14.95 67.55 19.15 65.15 21.95L59.45 28.55L67.65 31.45C71.05 32.65 71.05 37.55 67.65 38.75Z" fill="#192322"/>
</svg>
