<svg width="283" height="44" viewBox="0 0 283 44" fill="none" xmlns="http://www.w3.org/2000/svg">
<path d="M5.77602 7.38401H22.0756V13.7148H13.1935V18.4866H21.6031V24.8174H13.1935V29.7309H22.0756V36.0618H5.77602V7.38401ZM55.9411 29.9199V36.0618H52.2559C47.9094 36.0618 45.2637 34.6444 43.6101 32.3767C42.9959 31.5735 41.5313 29.4002 39.925 26.9907C35.6257 34.172 31.9406 36.2507 24.901 36.0618V29.9199C29.909 29.8727 33.1217 27.2742 36.4288 21.6993L34.1611 18.2976C30.6177 13.0062 26.6019 13.5731 24.901 13.5259V7.38401H27.4995C30.7122 7.38401 34.8698 7.66748 37.8934 12.1558C38.0824 12.4865 38.9801 13.7621 40.114 15.4629L40.3029 15.1794C43.4684 10.6439 44.933 7.38401 50.3189 7.38401H54.6182V13.5259H51.311C48.5708 13.5259 45.6889 17.211 43.6101 20.6126C45.3109 23.1166 46.87 25.3844 47.4369 26.1875C50.6496 30.3924 51.9252 29.9199 55.9411 29.9199ZM58.7883 7.38401H70.5051C76.1745 7.38401 80.3793 11.0219 80.3793 16.6913C80.3793 23.4001 77.3084 26.471 67.3397 26.471H66.2058V36.0618H58.7883V7.38401ZM66.2058 21.0851H67.5286C70.3633 21.0851 72.8673 20.9433 72.8673 17.1637C72.8673 14.6125 70.6468 13.2424 67.6704 13.2424H66.2058V21.0851ZM82.7338 36.0618V7.38401H90.1513V29.7309H99.0333V36.0618H82.7338ZM114.683 36.5342C105.611 36.5342 99.0444 30.1561 99.0444 21.7938C99.0444 13.8566 104.997 6.91156 114.683 6.91156C124.557 6.91156 130.368 14.0928 130.368 21.7938C130.368 29.9199 123.99 36.5342 114.683 36.5342ZM106.604 21.7938C106.604 26.0931 110.005 29.4475 114.683 29.4475C119.502 29.4475 122.809 25.9513 122.809 21.7938C122.809 17.7779 119.879 13.9983 114.683 13.9983C109.722 13.9983 106.604 17.6362 106.604 21.7938ZM133.209 7.38401H144.784C150.311 7.38401 154.374 10.7857 154.374 16.0771C154.374 20.6599 152.768 23.4001 148.138 24.5812L156.878 36.0618H147.713L140.626 25.1954V36.0618H133.209V7.38401ZM140.626 19.8095H141.902C144.642 19.8095 147.099 19.6677 147.099 16.5023C147.099 14.518 144.925 13.2424 142.043 13.2424H140.626V19.8095ZM175.657 7.38401L186.524 36.0618H179.106L176.839 30.1089H165.642L163.374 36.0618H155.956L166.823 7.38401H175.657ZM167.862 24.2505H174.618L171.264 15.3212L167.862 24.2505Z" fill="#FFFDFB"/>
<path d="M197.695 29.9199C202.656 30.0144 204.074 27.7466 204.074 25.1009C202.373 25.8568 200.436 26.1875 198.451 26.1875C197.129 26.1875 195.758 26.1403 194.577 25.9041V29.8727L197.695 29.9199ZM187.491 36.0618V7.38401H195.947C200.814 7.38401 209.412 7.80921 209.412 16.1716C209.412 17.4945 209.223 18.6283 208.94 19.6677C210.404 21.1796 211.16 23.0221 211.16 24.9592C211.16 32.1404 208.278 36.0618 196.987 36.0618H187.491ZM194.577 16.2188C195.617 15.9826 196.94 15.8409 198.546 15.8881C200.058 15.9354 201.428 16.0771 202.703 16.3606C202.373 14.3763 200.861 12.8644 194.577 12.9589V16.2188ZM198.451 21.652C199.585 21.652 200.388 21.463 201.05 21.1323C200.247 20.8016 199.396 20.6126 198.499 20.6126C195.475 20.6126 195.05 21.652 198.451 21.652ZM228.689 36.5342C219.618 36.5342 213.051 30.1561 213.051 21.7938C213.051 13.8566 219.004 6.91156 228.689 6.91156C238.563 6.91156 244.374 14.0928 244.374 21.7938C244.374 29.9199 237.996 36.5342 228.689 36.5342ZM220.61 21.7938C220.61 26.0931 224.012 29.4475 228.689 29.4475C233.508 29.4475 236.815 25.9513 236.815 21.7938C236.815 17.7779 233.886 13.9983 228.689 13.9983C223.728 13.9983 220.61 17.6362 220.61 21.7938ZM277.31 29.9199V36.0618H273.625C269.278 36.0618 266.633 34.6444 264.979 32.3767C264.365 31.5735 262.9 29.4002 261.294 26.9907C256.995 34.172 253.31 36.2507 246.27 36.0618V29.9199C251.278 29.8727 254.491 27.2742 257.798 21.6993L255.53 18.2976C251.987 13.0062 247.971 13.5731 246.27 13.5259V7.38401H248.868C252.081 7.38401 256.239 7.66748 259.262 12.1558C259.451 12.4865 260.349 13.7621 261.483 15.4629L261.672 15.1794C264.837 10.6439 266.302 7.38401 271.688 7.38401H275.987V13.5259H272.68C269.94 13.5259 267.058 17.211 264.979 20.6126C266.68 23.1166 268.239 25.3844 268.806 26.1875C272.019 30.3924 273.294 29.9199 277.31 29.9199Z" fill="#EE6D17"/>
</svg>
